<?xml version="1.0" encoding="UTF-8"?>
<!DOCTYPE svg PUBLIC "-//W3C//DTD SVG 1.1//EN" "http://www.w3.org/Graphics/SVG/1.1/DTD/svg11.dtd">
<!-- Creator: CorelDRAW 2021 (64-Bit) -->
<svg xmlns="http://www.w3.org/2000/svg" xml:space="preserve" width="100px" height="100px" version="1.1" style="shape-rendering:geometricPrecision; text-rendering:geometricPrecision; image-rendering:optimizeQuality; fill-rule:evenodd; clip-rule:evenodd"
viewBox="0 0 10.73 10.73"
 xmlns:xlink="http://www.w3.org/1999/xlink"
 xmlns:xodm="http://www.corel.com/coreldraw/odm/2003">
 <defs>
  <style type="text/css">
   <![CDATA[
    .fil0 {fill:none}
    .fil1 {fill:#049902;fill-rule:nonzero}
   ]]>
  </style>
 </defs>
 <g id="Layer_x0020_1">
  <metadata id="CorelCorpID_0Corel-Layer"/>
  <rect class="fil0" width="10.73" height="10.73"/>
  <g id="_2016393352176">
   <g>
    <g>
     <path class="fil1" d="M7.93 2.56l-5.87 0c-0.2,0 -0.36,0.16 -0.36,0.36l0 3.91c0,0.2 0.16,0.36 0.36,0.36l2.07 0 -0.09 0.75 -0.14 0c-0.07,0 -0.12,0.05 -0.12,0.11 0,0.07 0.05,0.12 0.12,0.12l0.61 0c0.06,0 0.11,-0.05 0.11,-0.12 0,-0.06 -0.05,-0.11 -0.11,-0.11l-0.24 0 0.09 -0.75 0.15 0c0.06,0 0.11,-0.05 0.11,-0.11 0,-0.07 -0.05,-0.12 -0.11,-0.12l-2.45 0c-0.07,0 -0.13,-0.06 -0.13,-0.13l0 -0.37 2.58 0c0.06,0 0.11,-0.05 0.11,-0.12 0,-0.06 -0.05,-0.11 -0.11,-0.11l-2.58 0 0 -3.31c0,-0.07 0.06,-0.13 0.13,-0.13l5.87 0c0.07,0 0.13,0.06 0.13,0.13l0 2.44c0,0.07 0.05,0.12 0.12,0.12 0.06,0 0.11,-0.05 0.11,-0.12l0 -2.44c0,-0.2 -0.16,-0.36 -0.36,-0.36z"/>
    </g>
   </g>
   <g>
    <g>
     <path class="fil1" d="M6.95 4.76l-1.71 0c-0.2,0 -0.36,0.16 -0.36,0.36l0 2.69c0,0.2 0.16,0.36 0.36,0.36l1.71 0c0.2,0 0.36,-0.16 0.36,-0.36l0 -2.69c0,-0.2 -0.16,-0.36 -0.36,-0.36zm0.13 3.05c0,0.07 -0.06,0.13 -0.13,0.13l-1.71 0c-0.07,0 -0.13,-0.06 -0.13,-0.13l0 -0.13 1.97 0 0 0.13 0 0zm0 -0.36l-1.97 0 0 -1.97 1.97 0 0 1.97 0 0zm0 -2.2l-1.97 0 0 -0.13c0,-0.07 0.06,-0.13 0.13,-0.13l1.71 0c0.07,0 0.13,0.06 0.13,0.13l0 0.13z"/>
    </g>
   </g>
   <g>
    <g>
     <path class="fil1" d="M8.67 5.74l-0.74 0c-0.2,0 -0.36,0.16 -0.36,0.36l0 1.71c0,0.2 0.16,0.36 0.36,0.36l0.74 0c0.19,0 0.35,-0.16 0.35,-0.36l0 -1.71c0,-0.2 -0.16,-0.36 -0.35,-0.36zm0.13 2.07c0,0.07 -0.06,0.13 -0.13,0.13l-0.74 0c-0.07,0 -0.13,-0.06 -0.13,-0.13l0 -0.13 1 0 0 0.13 0 0zm0 -0.36l-1 0 0 -0.99 1 0 0 0.99zm0 -1.22l-1 0 0 -0.13c0,-0.07 0.06,-0.13 0.13,-0.13l0.74 0c0.07,0 0.13,0.06 0.13,0.13l0 0.13 0 0z"/>
    </g>
   </g>
   <g>
   </g>
   <g>
   </g>
   <g>
   </g>
   <g>
   </g>
   <g>
   </g>
   <g>
   </g>
   <g>
   </g>
   <g>
   </g>
   <g>
   </g>
   <g>
   </g>
   <g>
   </g>
   <g>
   </g>
   <g>
   </g>
   <g>
   </g>
   <g>
   </g>
  </g>
 </g>
</svg>
