<?xml version="1.0" encoding="UTF-8"?>
<!DOCTYPE svg PUBLIC "-//W3C//DTD SVG 1.1//EN" "http://www.w3.org/Graphics/SVG/1.1/DTD/svg11.dtd">
<!-- Creator: CorelDRAW 2021 (64-Bit) -->
<svg xmlns="http://www.w3.org/2000/svg" xml:space="preserve" width="100px" height="100px" version="1.1" style="shape-rendering:geometricPrecision; text-rendering:geometricPrecision; image-rendering:optimizeQuality; fill-rule:evenodd; clip-rule:evenodd"
viewBox="0 0 45.34 45.34"
 xmlns:xlink="http://www.w3.org/1999/xlink"
 xmlns:xodm="http://www.corel.com/coreldraw/odm/2003">
 <defs>
  <style type="text/css">
   <![CDATA[
    .fil1 {fill:none}
    .fil0 {fill:#049902;fill-rule:nonzero}
   ]]>
  </style>
 </defs>
 <g id="Layer_x0020_1">
  <metadata id="CorelCorpID_0Corel-Layer"/>
  <g id="_2016392427472">
   <g>
    <g>
     <g>
      <path class="fil0" d="M11.13 33.6c-0.33,0 -0.61,0.28 -0.61,0.61 0,0.34 0.28,0.61 0.61,0.61 0.34,0 0.61,-0.27 0.61,-0.61 0,-0.34 -0.27,-0.61 -0.61,-0.61z"/>
      <path class="fil0" d="M26.92 33.6l-4.86 0c-0.33,0 -0.6,0.28 -0.6,0.61 0,0.34 0.27,0.61 0.6,0.61l4.86 0c0.34,0 0.61,-0.27 0.61,-0.61 0,-0.33 -0.27,-0.61 -0.61,-0.61z"/>
      <path class="fil0" d="M30.99 15.41c-0.85,-4.21 -4.6,-7.32 -8.93,-7.32 -5.02,0 -9.11,4.09 -9.11,9.11 0,0.21 0.01,0.42 0.03,0.64 -2.74,0.29 -4.89,2.62 -4.89,5.44 0,0.49 0.08,0.98 0.25,1.54 0.1,0.32 0.43,0.51 0.75,0.41 0.33,-0.09 0.51,-0.43 0.41,-0.75 -0.13,-0.45 -0.19,-0.83 -0.19,-1.2 0,-2.35 1.91,-4.25 4.21,-4.26 0.2,0.03 0.46,-0.04 0.6,-0.19 0.11,-0.14 0.17,-0.31 0.14,-0.49 -0.06,-0.43 -0.09,-0.8 -0.09,-1.14 0,-4.35 3.54,-7.89 7.89,-7.89 3.9,0 7.26,2.91 7.81,6.77 0.04,0.31 0.4,0.52 0.7,0.52 3.01,0 5.46,2.45 5.46,5.46 0,2.6 -1.84,4.85 -4.38,5.36 -0.33,0.07 -0.54,0.39 -0.48,0.72 0.06,0.28 0.31,0.48 0.6,0.48 0.04,0 0.08,0 0.12,-0.01 3.1,-0.62 5.36,-3.38 5.36,-6.55 0,-3.51 -2.72,-6.4 -6.26,-6.65z"/>
      <path class="fil0" d="M11.13 28.74c-0.33,0 -0.61,0.28 -0.61,0.61 0,0.34 0.28,0.61 0.61,0.61 0.34,0 0.61,-0.27 0.61,-0.61 0,-0.33 -0.27,-0.61 -0.61,-0.61z"/>
      <path class="fil0" d="M28.14 26.32l-18.22 0c-1.01,0 -1.83,0.81 -1.83,1.82l0 2.43c0,0.46 0.19,0.89 0.48,1.21 -0.29,0.33 -0.48,0.75 -0.48,1.22l0 2.43c0,1 0.82,1.82 1.83,1.82l18.22 0c1,0 1.82,-0.82 1.82,-1.82l0 -2.43c0,-0.47 -0.18,-0.9 -0.47,-1.22 0.29,-0.32 0.47,-0.75 0.47,-1.21l0 -2.43c0,-1.01 -0.82,-1.82 -1.82,-1.82zm0.6 9.11c0,0.33 -0.27,0.6 -0.6,0.6l-18.22 0c-0.34,0 -0.61,-0.27 -0.61,-0.6l0 -2.43c0,-0.34 0.27,-0.61 0.61,-0.61l18.22 0c0.33,0 0.6,0.27 0.6,0.61l0 2.43zm0 -4.86c0,0.33 -0.27,0.6 -0.6,0.6l-18.22 0c-0.34,0 -0.61,-0.27 -0.61,-0.6l0 -2.43c0,-0.34 0.27,-0.61 0.61,-0.61l18.22 0c0.33,0 0.6,0.27 0.6,0.61l0 2.43z"/>
      <path class="fil0" d="M26.92 28.74l-4.86 0c-0.33,0 -0.6,0.28 -0.6,0.61 0,0.34 0.27,0.61 0.6,0.61l4.86 0c0.34,0 0.61,-0.27 0.61,-0.61 0,-0.33 -0.27,-0.61 -0.61,-0.61z"/>
     </g>
    </g>
   </g>
   <g>
   </g>
   <g>
   </g>
   <g>
   </g>
   <g>
   </g>
   <g>
   </g>
   <g>
   </g>
   <g>
   </g>
   <g>
   </g>
   <g>
   </g>
   <g>
   </g>
   <g>
   </g>
   <g>
   </g>
   <g>
   </g>
   <g>
   </g>
   <g>
   </g>
  </g>
  <rect class="fil1" width="45.34" height="45.34"/>
 </g>
</svg>
