<?xml version="1.0" encoding="UTF-8"?>
<!DOCTYPE svg PUBLIC "-//W3C//DTD SVG 1.1//EN" "http://www.w3.org/Graphics/SVG/1.1/DTD/svg11.dtd">
<!-- Creator: CorelDRAW 2021 (64-Bit) -->
<svg xmlns="http://www.w3.org/2000/svg" xml:space="preserve" width="100px" height="100px" version="1.1" style="shape-rendering:geometricPrecision; text-rendering:geometricPrecision; image-rendering:optimizeQuality; fill-rule:evenodd; clip-rule:evenodd"
viewBox="0 0 211.34 211.34"
 xmlns:xlink="http://www.w3.org/1999/xlink"
 xmlns:xodm="http://www.corel.com/coreldraw/odm/2003">
 <defs>
  <style type="text/css">
   <![CDATA[
    .fil1 {fill:none}
    .fil0 {fill:#049902;fill-rule:nonzero}
   ]]>
  </style>
 </defs>
 <g id="Layer_x0020_1">
  <metadata id="CorelCorpID_0Corel-Layer"/>
  <g id="_2016393330096">
   <g>
    <g>
     <path class="fil0" d="M125.6 119.91l-3.13 0c-1.18,0 -2.23,-0.73 -2.64,-1.84 -0.34,-0.91 -0.72,-1.81 -1.12,-2.69 -0.5,-1.07 -0.27,-2.34 0.57,-3.18l2.23 -2.23c3.32,-3.35 3.31,-8.74 -0.01,-12.07l-8.05 -8.05c-3.34,-3.32 -8.73,-3.32 -12.07,0l-2.23 2.23c-0.84,0.84 -2.11,1.07 -3.18,0.57 -0.88,-0.4 -1.78,-0.77 -2.69,-1.14 -1.11,-0.4 -1.85,-1.46 -1.85,-2.64l0 -3.14c0,-4.71 -3.82,-8.54 -8.54,-8.54l-11.39 0c-4.72,0 -8.55,3.83 -8.55,8.54l0 3.14c0.01,1.18 -0.73,2.23 -1.83,2.64 -0.92,0.34 -1.81,0.71 -2.69,1.12 -1.07,0.49 -2.34,0.27 -3.18,-0.57l-2.23 -2.23c-3.34,-3.32 -8.74,-3.32 -12.08,0l-8.04 8.07c-3.32,3.34 -3.32,8.73 0,12.07l2.23 2.23c0.84,0.84 1.07,2.11 0.57,3.18 -0.4,0.88 -0.78,1.78 -1.13,2.69 -0.41,1.12 -1.47,1.85 -2.65,1.84l-3.14 0c-4.71,0 -8.54,3.82 -8.54,8.54l0 11.39c0,4.72 3.83,8.55 8.54,8.55l3.14 0c1.17,-0.01 2.23,0.73 2.63,1.83 0.35,0.92 0.72,1.81 1.12,2.69 0.5,1.07 0.27,2.34 -0.57,3.18l-2.23 2.23c-3.32,3.34 -3.32,8.73 0,12.07l8.05 8.05c3.34,3.32 8.73,3.32 12.07,0l2.24 -2.23c0.83,-0.84 2.1,-1.06 3.17,-0.57 0.89,0.4 1.78,0.78 2.69,1.14 1.12,0.4 1.87,1.46 1.86,2.64l0 3.14c0,4.71 3.83,8.54 8.55,8.54l11.39 0c4.72,0 8.54,-3.83 8.54,-8.54l0 -3.14c0,-1.17 0.73,-2.23 1.84,-2.63 0.91,-0.35 1.8,-0.72 2.69,-1.12 1.07,-0.5 2.34,-0.27 3.17,0.56l2.24 2.24c3.34,3.31 8.73,3.3 12.07,-0.02l8.05 -8.04c3.32,-3.34 3.32,-8.74 0,-12.08l-2.23 -2.23c-0.84,-0.84 -1.07,-2.11 -0.57,-3.18 0.4,-0.88 0.77,-1.77 1.14,-2.69 0.4,-1.11 1.46,-1.85 2.64,-1.84l3.13 0c4.72,0 8.55,-3.83 8.55,-8.55l0 -11.39c0,-4.72 -3.83,-8.54 -8.55,-8.54zm2.85 19.93c0,1.57 -1.27,2.85 -2.85,2.85l-3.13 0c-3.54,0.01 -6.71,2.2 -7.97,5.51 -0.3,0.79 -0.63,1.58 -0.98,2.35 -1.47,3.23 -0.79,7.03 1.71,9.56l2.22 2.23c1.12,1.11 1.12,2.91 0.01,4.02 0,0 -0.01,0.01 -0.01,0.01l-8.04 8.04c-1.12,1.12 -2.92,1.12 -4.03,0l-2.23 -2.22c-2.53,-2.5 -6.33,-3.18 -9.56,-1.71 -0.77,0.35 -1.56,0.67 -2.35,0.98 -3.3,1.26 -5.49,4.43 -5.51,7.96l0 3.14c0,1.57 -1.27,2.85 -2.84,2.85l-11.39 0c-1.58,0 -2.85,-1.28 -2.85,-2.85l0 -3.14c-0.01,-3.54 -2.2,-6.71 -5.51,-7.97 -0.79,-0.3 -1.58,-0.63 -2.35,-0.98 -3.23,-1.46 -7.04,-0.78 -9.56,1.71l-2.23 2.23c-1.11,1.11 -2.91,1.11 -4.03,0 0,0 0,0 0,0l-8.05 -8.04c-1.11,-1.11 -1.11,-2.92 0,-4.03l2.23 -2.23c2.5,-2.53 3.18,-6.33 1.71,-9.56 -0.35,-0.77 -0.67,-1.56 -0.98,-2.35 -1.26,-3.3 -4.42,-5.5 -7.96,-5.51l-3.14 0c-1.57,0 -2.85,-1.28 -2.85,-2.85l0 -11.39c0,-1.57 1.28,-2.85 2.85,-2.85l3.14 0c3.54,-0.01 6.7,-2.2 7.97,-5.5 0.3,-0.8 0.63,-1.59 0.98,-2.36 1.46,-3.23 0.78,-7.03 -1.71,-9.56l-2.24 -2.23c-1.11,-1.11 -1.11,-2.91 0,-4.02 0,0 0,-0.01 0,-0.01l8.05 -8.04c1.11,-1.11 2.91,-1.11 4.02,0l2.24 2.23c2.52,2.49 6.32,3.17 9.55,1.71 0.78,-0.36 1.56,-0.68 2.35,-0.99 3.31,-1.26 5.5,-4.42 5.52,-7.96l0 -3.14c0,-1.57 1.27,-2.84 2.85,-2.84l11.39 0c1.57,0 2.84,1.27 2.84,2.84l0 3.14c0.02,3.54 2.21,6.71 5.51,7.97 0.8,0.3 1.59,0.63 2.36,0.98 3.23,1.47 7.03,0.79 9.56,-1.71l2.22 -2.23c1.12,-1.1 2.92,-1.1 4.03,0l8.05 8.05c1.11,1.12 1.11,2.92 0,4.03l-2.23 2.23c-2.49,2.53 -3.17,6.33 -1.71,9.56 0.35,0.77 0.68,1.56 0.98,2.35 1.27,3.3 4.43,5.49 7.97,5.5l3.13 0c1.58,0 2.85,1.28 2.85,2.85l0 11.39z"/>
    </g>
   </g>
   <g>
    <g>
     <path class="fil0" d="M102.77 133.01c-0.03,-0.69 -0.08,-1.37 -0.16,-2.05 -0.1,-0.72 -0.2,-1.45 -0.36,-2.16 -0.1,-0.46 -0.23,-0.92 -0.35,-1.38 -0.16,-0.59 -0.34,-1.17 -0.54,-1.73 -0.14,-0.4 -0.28,-0.79 -0.43,-1.18 -0.37,-0.91 -0.79,-1.81 -1.26,-2.67 -0.03,-0.06 -0.06,-0.14 -0.09,-0.2 -0.75,-1.32 -1.6,-2.57 -2.57,-3.74 -0.08,-0.1 -0.18,-0.19 -0.26,-0.29 -0.39,-0.47 -0.8,-0.92 -1.22,-1.35 -0.22,-0.23 -0.46,-0.44 -0.69,-0.67 -0.28,-0.26 -0.57,-0.52 -0.86,-0.77 -0.34,-0.3 -0.69,-0.59 -1.05,-0.88l-0.47 -0.34c-4.4,-3.3 -9.76,-5.09 -15.27,-5.08 -0.28,0 -0.57,0.04 -0.85,0.05 -0.61,0.02 -1.22,0.05 -1.83,0.11 -0.32,0.04 -0.65,0.08 -0.97,0.12 -0.93,0.12 -1.85,0.3 -2.76,0.52 -13.71,3.54 -21.95,17.53 -18.41,31.24 2.34,9.04 9.39,16.09 18.43,18.42 0.05,0 0.1,0.01 0.15,0.02 0.98,0.25 1.97,0.44 2.98,0.57 0.66,0.09 1.33,0.1 1.99,0.13 0.45,0.03 0.86,0.09 1.32,0.09 0.81,0 1.66,-0.05 2.52,-0.14 0.09,0 0.18,-0.02 0.28,-0.03 0.69,-0.08 1.39,-0.18 2.11,-0.33 0.28,-0.05 0.55,-0.12 0.82,-0.18 0.5,-0.12 1,-0.24 1.51,-0.39 0.4,-0.12 0.79,-0.26 1.18,-0.4 0.39,-0.14 0.79,-0.28 1.2,-0.44 0.4,-0.15 0.74,-0.33 1.11,-0.5 0.48,-0.22 0.95,-0.44 1.42,-0.69l0.02 0c2.66,-1.43 5.11,-3.2 7.3,-5.27 0.59,-0.55 1.1,-1.18 1.53,-1.87 2.22,-3.56 3.68,-7.55 4.28,-11.7 0.08,-0.56 0.15,-1.1 0.2,-1.67 0.04,-0.51 0.07,-1.02 0.08,-1.54 0,-0.16 0.02,-0.31 0.02,-0.47 0,-0.4 -0.04,-0.78 -0.05,-1.16zm-5.68 1.86c0,0.24 -0.02,0.48 -0.04,0.71 -0.05,0.69 -0.14,1.38 -0.25,2.07 -1.07,5.92 -4.74,11.04 -10.01,13.95 -0.35,0.19 -0.7,0.36 -1.05,0.52l-0.23 0.11c-1.66,0.76 -3.4,1.28 -5.2,1.58 -0.12,0.02 -0.25,0.04 -0.38,0.06 -0.35,0.05 -0.7,0.09 -1.05,0.12 -0.46,0.04 -0.92,0.06 -1.39,0.07 -0.2,0 -0.4,0 -0.6,0 -0.67,-0.01 -1.34,-0.05 -2.01,-0.12l-0.34 -0.04c-0.79,-0.11 -1.56,-0.25 -2.33,-0.44 -10.67,-2.73 -17.1,-13.59 -14.37,-24.26 1.81,-7.04 7.3,-12.55 14.35,-14.36l0 0c1.64,-0.41 3.32,-0.62 5,-0.63 0.82,0.01 1.63,0.06 2.44,0.17 0.21,0.02 0.43,0.06 0.64,0.1 0.62,0.09 1.23,0.21 1.83,0.37 0.19,0.05 0.39,0.09 0.58,0.15 1.52,0.44 2.97,1.05 4.35,1.83 0.21,0.12 0.43,0.26 0.64,0.39 0.46,0.29 0.89,0.57 1.32,0.9 0.23,0.16 0.46,0.33 0.69,0.51 0.56,0.45 1.09,0.92 1.6,1.42 0.2,0.21 0.39,0.43 0.59,0.65 0.32,0.35 0.64,0.72 0.95,1.1 0.21,0.27 0.41,0.54 0.61,0.81 0.28,0.41 0.57,0.84 0.82,1.28 0.15,0.23 0.29,0.46 0.43,0.7 0.37,0.68 0.7,1.38 0.98,2.09 0.12,0.29 0.21,0.57 0.32,0.86 0.18,0.52 0.34,1.05 0.48,1.58 0.07,0.29 0.15,0.54 0.21,0.82 0.17,0.77 0.29,1.55 0.36,2.33 0.02,0.21 0.02,0.42 0.03,0.63 0.04,0.65 0.05,1.31 0.03,1.97z"/>
    </g>
   </g>
   <g>
    <g>
     <path class="fil0" d="M182.56 80.04l-8.96 0c-1.19,0.01 -2.26,-0.74 -2.65,-1.87 -0.89,-2.64 -1.95,-5.22 -3.2,-7.72 -0.53,-1.08 -0.31,-2.37 0.54,-3.21l6.35 -6.36c3.34,-3.34 3.34,-8.74 0,-12.08l-12.1 -12.09c-3.34,-3.33 -8.74,-3.33 -12.08,0l-6.35 6.35c-0.84,0.85 -2.13,1.07 -3.21,0.55 -2.49,-1.26 -5.08,-2.33 -7.72,-3.22 -1.13,-0.38 -1.89,-1.46 -1.88,-2.65l0 -8.96c0,-4.71 -3.83,-8.54 -8.55,-8.54l-17.08 0c-4.72,0 -8.54,3.83 -8.54,8.54l0 8.96c0.01,1.19 -0.74,2.26 -1.87,2.65 -2.65,0.89 -5.23,1.96 -7.72,3.21 -1.08,0.53 -2.37,0.31 -3.22,-0.54l-6.36 -6.35c-3.34,-3.33 -8.73,-3.33 -12.07,0l-12.09 12.08c-3.33,3.34 -3.33,8.75 0,12.08l9.34 9.36c1.13,1.09 2.93,1.06 4.03,-0.07 1.06,-1.1 1.07,-2.85 0,-3.95l-9.34 -9.36c-1.11,-1.11 -1.11,-2.91 0,-4.02l12.08 -12.09c1.11,-1.11 2.92,-1.11 4.03,0l6.36 6.35c2.58,2.59 6.52,3.24 9.79,1.61 2.25,-1.13 4.59,-2.1 6.98,-2.9 3.45,-1.17 5.77,-4.42 5.75,-8.06l0 -8.96c0,-1.57 1.28,-2.85 2.85,-2.85l17.08 0c1.58,0 2.85,1.28 2.85,2.85l0 8.96c-0.01,3.64 2.31,6.89 5.76,8.05 2.39,0.81 4.72,1.78 6.98,2.91 3.27,1.62 7.21,0.97 9.78,-1.61l6.36 -6.35c1.12,-1.11 2.92,-1.11 4.03,0l12.09 12.09c1.11,1.11 1.11,2.91 0,4.02l-6.35 6.37c-2.59,2.57 -3.24,6.51 -1.61,9.78 1.13,2.26 2.1,4.59 2.9,6.98 1.17,3.45 4.42,5.77 8.06,5.75l8.96 0c1.57,0 2.85,1.28 2.85,2.85l0 17.09c0,1.57 -1.28,2.85 -2.85,2.85l-8.96 0c-3.64,-0.02 -6.89,2.3 -8.06,5.75 -0.8,2.39 -1.77,4.73 -2.9,6.98 -1.62,3.27 -0.98,7.21 1.61,9.79l6.35 6.36c1.11,1.11 1.11,2.91 0,4.03l-12.09 12.08c-1.11,1.11 -2.91,1.11 -4.03,0l-9.35 -9.34c-1.1,-1.13 -2.9,-1.16 -4.03,-0.06 -1.13,1.09 -1.16,2.89 -0.06,4.03 0.02,0.02 0.04,0.04 0.07,0.07l9.35 9.33c3.34,3.34 8.74,3.34 12.08,0l12.08 -12.08c3.34,-3.34 3.34,-8.74 0,-12.08l-6.34 -6.35c-0.85,-0.85 -1.07,-2.14 -0.55,-3.21 1.25,-2.5 2.33,-5.08 3.22,-7.73 0.38,-1.13 1.45,-1.89 2.65,-1.88l8.96 0c4.71,0 8.54,-3.82 8.54,-8.54l0 -17.09c0,-4.71 -3.83,-8.54 -8.54,-8.54z"/>
    </g>
   </g>
   <g>
    <g>
     <path class="fil0" d="M140.39 70.95c-14.47,-14.44 -37.89,-14.44 -52.35,0 -1.09,1.13 -1.06,2.94 0.07,4.03 1.1,1.06 2.85,1.06 3.95,0 12.15,-12.32 31.99,-12.45 44.3,-0.3 12.32,12.15 12.45,31.98 0.3,44.3 -0.1,0.1 -0.2,0.2 -0.3,0.3 -1.13,1.09 -1.16,2.89 -0.07,4.02 1.09,1.13 2.9,1.16 4.03,0.07 0.02,-0.02 0.04,-0.04 0.07,-0.07 14.43,-14.46 14.43,-37.88 0,-52.35z"/>
    </g>
   </g>
   <g>
   </g>
   <g>
   </g>
   <g>
   </g>
   <g>
   </g>
   <g>
   </g>
   <g>
   </g>
   <g>
   </g>
   <g>
   </g>
   <g>
   </g>
   <g>
   </g>
   <g>
   </g>
   <g>
   </g>
   <g>
   </g>
   <g>
   </g>
   <g>
   </g>
  </g>
  <rect class="fil1" width="211.34" height="211.34"/>
 </g>
</svg>
