<?xml version="1.0" encoding="UTF-8"?>
<!DOCTYPE svg PUBLIC "-//W3C//DTD SVG 1.1//EN" "http://www.w3.org/Graphics/SVG/1.1/DTD/svg11.dtd">
<!-- Creator: CorelDRAW 2021 (64-Bit) -->
<svg xmlns="http://www.w3.org/2000/svg" xml:space="preserve" width="100px" height="100px" version="1.1" style="shape-rendering:geometricPrecision; text-rendering:geometricPrecision; image-rendering:optimizeQuality; fill-rule:evenodd; clip-rule:evenodd"
viewBox="0 0 19.79 19.79"
 xmlns:xlink="http://www.w3.org/1999/xlink"
 xmlns:xodm="http://www.corel.com/coreldraw/odm/2003">
 <defs>
  <style type="text/css">
   <![CDATA[
    .fil1 {fill:none}
    .fil0 {fill:#049902;fill-rule:nonzero}
   ]]>
  </style>
 </defs>
 <g id="Layer_x0020_1">
  <metadata id="CorelCorpID_0Corel-Layer"/>
  <g id="_2016398820928">
   <g>
    <path class="fil0" d="M9.89 7.54c-0.82,0 -1.49,0.67 -1.49,1.49 0,0.68 0.46,1.25 1.09,1.43l0 4.63c0,0.22 0.18,0.41 0.4,0.41 0.23,0 0.41,-0.19 0.41,-0.41l0 -4.63c0.62,-0.18 1.08,-0.75 1.08,-1.43 0,-0.82 -0.67,-1.49 -1.49,-1.49zm0 2.16c-0.37,0 -0.67,-0.3 -0.67,-0.67 0,-0.38 0.3,-0.68 0.67,-0.68 0.38,0 0.68,0.3 0.68,0.68 0,0.37 -0.3,0.67 -0.68,0.67z"/>
    <path class="fil0" d="M8.01 6.86c-0.15,-0.16 -0.41,-0.16 -0.57,0 -1.26,1.26 -1.26,3.29 0,4.55 0.16,0.16 0.42,0.16 0.57,0 0.16,-0.16 0.16,-0.41 0,-0.57 -0.94,-0.94 -0.94,-2.47 0,-3.41 0.16,-0.16 0.16,-0.41 0,-0.57z"/>
    <path class="fil0" d="M12.34 6.86c-0.15,-0.16 -0.41,-0.16 -0.57,0 -0.16,0.16 -0.16,0.41 0,0.57 0.94,0.94 0.94,2.47 0,3.41 -0.16,0.16 -0.16,0.41 0,0.57 0.16,0.16 0.42,0.16 0.57,0 1.26,-1.25 1.26,-3.3 0,-4.55z"/>
    <path class="fil0" d="M6.79 6.21c0.16,-0.16 0.16,-0.42 0,-0.58 -0.16,-0.16 -0.42,-0.16 -0.57,0 -1.94,1.93 -1.94,5.08 0,7.01 0.15,0.16 0.41,0.16 0.57,0 0.16,-0.16 0.16,-0.42 0,-0.58 -1.61,-1.61 -1.61,-4.24 0,-5.85z"/>
    <path class="fil0" d="M13.57 5.63c-0.16,-0.16 -0.42,-0.16 -0.57,0 -0.16,0.16 -0.16,0.42 0,0.58 1.61,1.61 1.61,4.24 0,5.85 -0.16,0.16 -0.16,0.42 0,0.58 0.15,0.16 0.41,0.16 0.57,0 1.93,-1.93 1.93,-5.08 0,-7.01z"/>
    <path class="fil0" d="M5.57 4.98c0.15,-0.16 0.15,-0.41 0,-0.57 -0.16,-0.16 -0.42,-0.16 -0.58,0 -2.7,2.7 -2.7,6.75 0,9.45 0.16,0.16 0.42,0.16 0.58,0 0.15,-0.16 0.15,-0.41 0,-0.57 -2.37,-2.37 -2.37,-5.94 0,-8.31z"/>
    <path class="fil0" d="M14.79 4.41c-0.15,-0.16 -0.41,-0.16 -0.57,0 -0.16,0.16 -0.16,0.41 0,0.57 2.37,2.37 2.37,5.94 0,8.31 -0.16,0.16 -0.16,0.41 0,0.57 0.16,0.16 0.42,0.16 0.57,0 2.71,-2.7 2.7,-6.75 0,-9.45z"/>
   </g>
  </g>
  <rect class="fil1" width="19.79" height="19.79"/>
 </g>
</svg>
