<?xml version="1.0" encoding="UTF-8"?>
<!DOCTYPE svg PUBLIC "-//W3C//DTD SVG 1.1//EN" "http://www.w3.org/Graphics/SVG/1.1/DTD/svg11.dtd">
<!-- Creator: CorelDRAW 2021 (64-Bit) -->
<svg xmlns="http://www.w3.org/2000/svg" xml:space="preserve" width="100px" height="100px" version="1.1" style="shape-rendering:geometricPrecision; text-rendering:geometricPrecision; image-rendering:optimizeQuality; fill-rule:evenodd; clip-rule:evenodd"
viewBox="0 0 100 100"
 xmlns:xlink="http://www.w3.org/1999/xlink"
 xmlns:xodm="http://www.corel.com/coreldraw/odm/2003">
 <defs>
  <style type="text/css">
   <![CDATA[
    .fil1 {fill:none}
    .fil0 {fill:#049902;fill-rule:nonzero}
   ]]>
  </style>
 </defs>
 <g id="Layer_x0020_1">
  <metadata id="CorelCorpID_0Corel-Layer"/>
  <g id="_2016399600864">
   <g>
    <g>
     <g>
      <path class="fil0" d="M50 16.73c-18.37,0 -33.27,14.9 -33.27,33.27 0,18.37 14.9,33.27 33.27,33.27 18.37,0 33.27,-14.9 33.27,-33.27 0,-18.37 -14.9,-33.27 -33.27,-33.27zm0 62.38c-16.08,0 -29.11,-13.03 -29.11,-29.11 0,-16.08 13.03,-29.11 29.11,-29.11 16.08,0 29.11,13.03 29.11,29.11 0,16.08 -13.03,29.11 -29.11,29.11z"/>
      <circle class="fil0" cx="50" cy="50" r="4.16"/>
      <circle class="fil0" cx="64.56" cy="50" r="4.16"/>
      <circle class="fil0" cx="35.45" cy="50" r="4.16"/>
     </g>
    </g>
   </g>
   <g>
   </g>
   <g>
   </g>
   <g>
   </g>
   <g>
   </g>
   <g>
   </g>
   <g>
   </g>
   <g>
   </g>
   <g>
   </g>
   <g>
   </g>
   <g>
   </g>
   <g>
   </g>
   <g>
   </g>
   <g>
   </g>
   <g>
   </g>
   <g>
   </g>
  </g>
  <rect class="fil1" width="100" height="100"/>
 </g>
</svg>
