<?xml version="1.0" encoding="UTF-8"?>
<!DOCTYPE svg PUBLIC "-//W3C//DTD SVG 1.1//EN" "http://www.w3.org/Graphics/SVG/1.1/DTD/svg11.dtd">
<!-- Creator: CorelDRAW 2021 (64-Bit) -->
<svg xmlns="http://www.w3.org/2000/svg" xml:space="preserve" width="100px" height="100px" version="1.1" style="shape-rendering:geometricPrecision; text-rendering:geometricPrecision; image-rendering:optimizeQuality; fill-rule:evenodd; clip-rule:evenodd"
viewBox="0 0 18.58 18.58"
 xmlns:xlink="http://www.w3.org/1999/xlink"
 xmlns:xodm="http://www.corel.com/coreldraw/odm/2003">
 <defs>
  <style type="text/css">
   <![CDATA[
    .fil1 {fill:none}
    .fil0 {fill:#049902}
   ]]>
  </style>
 </defs>
 <g id="Layer_x0020_1">
  <metadata id="CorelCorpID_0Corel-Layer"/>
  <g id="_2016405725680">
   <g id="Layer_x0020_1_0">
    <g id="_284679616">
     <g>
      <g id="_286105888">
       <path class="fil0" d="M9.29 10.8c-0.08,0 -0.17,-0.05 -0.17,-0.17l0 -0.71c0,-0.09 0.09,-0.17 0.17,-0.17 0.09,0 0.17,0.08 0.17,0.17l0 0.71c0,0.12 -0.08,0.17 -0.17,0.17z"/>
      </g>
      <g id="_286107568">
       <path class="fil0" d="M9.29 10.09c-0.28,0 -0.51,-0.23 -0.51,-0.51 0,-0.29 0.23,-0.52 0.51,-0.52 0.29,0 0.52,0.23 0.52,0.52 0,0.28 -0.23,0.51 -0.52,0.51zm0 -0.68c-0.08,0 -0.17,0.08 -0.17,0.17 0,0.08 0.09,0.17 0.17,0.17 0.09,0 0.17,-0.09 0.17,-0.17 0,-0.09 -0.08,-0.17 -0.17,-0.17z"/>
      </g>
      <g id="_286108144">
       <path class="fil0" d="M9.29 13.11c-0.03,0 -0.06,0 -0.06,0 -2.59,-1.14 -2.99,-2.73 -2.99,-2.79l0 -0.03 0 -3.54c0,-0.06 0.03,-0.11 0.08,-0.14l2.91 -1.14 0.12 0 2.91 1.14c0.06,0.03 0.08,0.08 0.08,0.14l0 3.54 0 0.03c0,0.06 -0.4,1.65 -2.99,2.79 0,0 -0.03,0 -0.06,0l0 0zm-2.71 -2.85c0,0.09 0.12,0.43 0.46,0.86 0.37,0.45 1.02,1.11 2.25,1.65 1.23,-0.54 1.88,-1.2 2.26,-1.65 0.34,-0.43 0.45,-0.77 0.45,-0.86l0 -3.39 -2.71 -1.06 -2.71 1.06 0 3.39z"/>
      </g>
      <g id="_286108744">
       <path class="fil0" d="M9.29 14.23c-0.03,0 -0.06,-0.03 -0.06,-0.03 -1.74,-0.74 -2.71,-1.68 -3.19,-2.31 -0.54,-0.72 -0.69,-1.26 -0.69,-1.26 0,-0.03 0,-0.03 0,-0.05l0 -4.57c0,-0.09 0.06,-0.14 0.12,-0.17l3.76 -1.46c0.03,-0.02 0.09,-0.02 0.12,0l3.76 1.46c0.06,0.03 0.12,0.08 0.12,0.17l0 4.57 0 0.05c0,0 -0.14,0.54 -0.69,1.26 -0.48,0.63 -1.45,1.57 -3.19,2.31 0,0 -0.03,0.03 -0.06,0.03l0 0zm-3.59 -3.68c0.03,0.11 0.17,0.57 0.62,1.14 0.46,0.6 1.37,1.45 2.97,2.17 1.6,-0.72 2.51,-1.57 2.97,-2.17 0.46,-0.57 0.6,-1.03 0.63,-1.14l0 -4.43 -3.6 -1.39 -3.59 1.39 0 4.43z"/>
      </g>
      <g id="_286108528">
       <path class="fil0" d="M10.58 9.21c-0.06,0 -0.09,-0.03 -0.15,-0.06 -0.25,-0.37 -0.68,-0.6 -1.14,-0.6 -0.45,0 -0.88,0.23 -1.14,0.6 -0.06,0.06 -0.14,0.08 -0.2,0.06 -0.09,-0.03 -0.11,-0.09 -0.11,-0.18l0 -0.68c0,-0.8 0.65,-1.46 1.45,-1.46 0.8,0 1.46,0.66 1.46,1.46l0 0.68c0,0.09 -0.03,0.15 -0.12,0.18 0,0 -0.03,0 -0.05,0l0 0zm-1.29 -1c0.43,0 0.8,0.14 1.11,0.4l0 -0.26c0,-0.6 -0.48,-1.11 -1.11,-1.11 -0.63,0 -1.11,0.51 -1.11,1.11l0 0.26c0.31,-0.26 0.68,-0.4 1.11,-0.4z"/>
      </g>
      <g id="_286108432">
       <path class="fil0" d="M9.29 11.69c-0.97,0 -1.74,-0.8 -1.74,-1.74 0,-0.97 0.77,-1.74 1.74,-1.74 0.97,0 1.74,0.77 1.74,1.74 0,0.94 -0.77,1.74 -1.74,1.74zm0 -3.14c-0.77,0 -1.4,0.63 -1.4,1.4 0,0.77 0.63,1.4 1.4,1.4 0.77,0 1.4,-0.63 1.4,-1.4 0,-0.77 -0.63,-1.4 -1.4,-1.4z"/>
      </g>
      <g id="_286108168">
       <path class="fil0" d="M9.29 4.7c-0.08,0 -0.17,-0.06 -0.17,-0.17l0 -1.34c0,-0.09 0.09,-0.18 0.17,-0.18 0.09,0 0.17,0.09 0.17,0.18l0 1.34c0,0.11 -0.08,0.17 -0.17,0.17z"/>
      </g>
      <g id="_286108216">
       <path class="fil0" d="M9.29 3.36c-0.37,0 -0.68,-0.29 -0.68,-0.69 0,-0.37 0.31,-0.68 0.68,-0.68 0.37,0 0.69,0.31 0.69,0.68 0,0.4 -0.32,0.69 -0.69,0.69zm0 -1.03c-0.2,0 -0.34,0.14 -0.34,0.34 0,0.2 0.14,0.34 0.34,0.34 0.2,0 0.34,-0.14 0.34,-0.34 0,-0.2 -0.14,-0.34 -0.34,-0.34z"/>
      </g>
      <g id="_286108336">
       <path class="fil0" d="M11.75 5.67c-0.09,0 -0.18,-0.09 -0.18,-0.17l0 -1.2c0,-0.12 0.09,-0.17 0.18,-0.17 0.11,0 0.17,0.05 0.17,0.17l0 1.2c0,0.08 -0.06,0.17 -0.17,0.17z"/>
      </g>
      <g id="_286108240">
       <path class="fil0" d="M11.75 4.47c-0.38,0 -0.69,-0.31 -0.69,-0.71 0,-0.37 0.31,-0.69 0.69,-0.69 0.39,0 0.68,0.32 0.68,0.69 0,0.4 -0.29,0.71 -0.68,0.71zm0 -1.06c-0.18,0 -0.35,0.18 -0.35,0.35 0,0.2 0.17,0.37 0.35,0.37 0.19,0 0.34,-0.17 0.34,-0.37 0,-0.17 -0.15,-0.35 -0.34,-0.35z"/>
      </g>
      <g id="_286108672">
       <path class="fil0" d="M6.84 5.67c-0.12,0 -0.17,-0.09 -0.17,-0.17l0 -1.2c0,-0.12 0.05,-0.17 0.17,-0.17 0.08,0 0.17,0.05 0.17,0.17l0 1.2c0,0.08 -0.09,0.17 -0.17,0.17z"/>
      </g>
      <g id="_286109056">
       <path class="fil0" d="M6.84 4.47c-0.4,0 -0.69,-0.31 -0.69,-0.71 0,-0.37 0.29,-0.69 0.69,-0.69 0.37,0 0.68,0.32 0.68,0.69 0,0.4 -0.31,0.71 -0.68,0.71zm0 -1.06c-0.2,0 -0.34,0.18 -0.34,0.35 0,0.2 0.14,0.37 0.34,0.37 0.17,0 0.34,-0.17 0.34,-0.37 0,-0.17 -0.17,-0.35 -0.34,-0.35z"/>
      </g>
      <g id="_286109104">
       <path class="fil0" d="M9.29 15.57c-0.08,0 -0.17,-0.09 -0.17,-0.17l0 -1.34c0,-0.12 0.09,-0.18 0.17,-0.18 0.09,0 0.17,0.06 0.17,0.18l0 1.34c0,0.08 -0.08,0.17 -0.17,0.17z"/>
      </g>
      <g id="_286109176">
       <path class="fil0" d="M9.29 16.6c-0.37,0 -0.68,-0.32 -0.68,-0.69 0,-0.4 0.31,-0.68 0.68,-0.68 0.37,0 0.69,0.28 0.69,0.68 0,0.37 -0.32,0.69 -0.69,0.69zm0 -1.03c-0.2,0 -0.34,0.14 -0.34,0.34 0,0.2 0.14,0.34 0.34,0.34 0.2,0 0.34,-0.14 0.34,-0.34 0,-0.2 -0.14,-0.34 -0.34,-0.34z"/>
      </g>
      <g id="_286109224">
       <path class="fil0" d="M11.75 14.46c-0.09,0 -0.18,-0.06 -0.18,-0.18l0 -1.79c0,-0.12 0.09,-0.17 0.18,-0.17 0.11,0 0.17,0.05 0.17,0.17l0 1.79c0,0.12 -0.06,0.18 -0.17,0.18z"/>
      </g>
      <g id="_286109296">
       <path class="fil0" d="M11.75 15.51c-0.38,0 -0.69,-0.31 -0.69,-0.68 0,-0.4 0.31,-0.72 0.69,-0.72 0.39,0 0.68,0.32 0.68,0.72 0,0.37 -0.29,0.68 -0.68,0.68zm0 -1.05c-0.18,0 -0.35,0.17 -0.35,0.37 0,0.17 0.17,0.34 0.35,0.34 0.19,0 0.34,-0.17 0.34,-0.34 0,-0.2 -0.15,-0.37 -0.34,-0.37z"/>
      </g>
      <g id="_286108936">
       <path class="fil0" d="M6.84 14.46c-0.12,0 -0.17,-0.06 -0.17,-0.18l0 -1.82c0,-0.09 0.05,-0.17 0.17,-0.17 0.08,0 0.17,0.08 0.17,0.17l0 1.82c0,0.12 -0.09,0.18 -0.17,0.18z"/>
      </g>
      <g id="_286109008">
       <path class="fil0" d="M6.84 15.51c-0.4,0 -0.69,-0.31 -0.69,-0.68 0,-0.4 0.29,-0.72 0.69,-0.72 0.37,0 0.68,0.32 0.68,0.72 0,0.37 -0.31,0.68 -0.68,0.68zm0 -1.05c-0.2,0 -0.34,0.17 -0.34,0.37 0,0.17 0.14,0.34 0.34,0.34 0.17,0 0.34,-0.17 0.34,-0.34 0,-0.2 -0.17,-0.37 -0.34,-0.37z"/>
      </g>
      <g id="_286109416">
       <path class="fil0" d="M14.4 8.46l-1.34 0c-0.09,0 -0.17,-0.08 -0.17,-0.17 0,-0.08 0.08,-0.17 0.17,-0.17l1.34 0c0.08,0 0.17,0.09 0.17,0.17 0,0.09 -0.09,0.17 -0.17,0.17z"/>
      </g>
      <g id="_286109584">
       <path class="fil0" d="M14.91 8.98c-0.37,0 -0.68,-0.32 -0.68,-0.69 0,-0.37 0.31,-0.68 0.68,-0.68 0.37,0 0.69,0.31 0.69,0.68 0,0.37 -0.32,0.69 -0.69,0.69zm0 -1.03c-0.2,0 -0.34,0.14 -0.34,0.34 0,0.2 0.14,0.35 0.34,0.35 0.2,0 0.34,-0.15 0.34,-0.35 0,-0.2 -0.14,-0.34 -0.34,-0.34z"/>
      </g>
      <g id="_286108984">
       <path class="fil0" d="M14.4 6.78l-1.34 0c-0.09,0 -0.17,-0.09 -0.17,-0.17 0,-0.11 0.08,-0.17 0.17,-0.17l1.34 0c0.08,0 0.17,0.06 0.17,0.17 0,0.08 -0.09,0.17 -0.17,0.17z"/>
      </g>
      <g id="_286110016">
       <path class="fil0" d="M14.91 7.29c-0.37,0 -0.68,-0.31 -0.68,-0.68 0,-0.4 0.31,-0.71 0.68,-0.71 0.37,0 0.69,0.31 0.69,0.71 0,0.37 -0.32,0.68 -0.69,0.68zm0 -1.05c-0.2,0 -0.34,0.17 -0.34,0.37 0,0.17 0.14,0.34 0.34,0.34 0.2,0 0.34,-0.17 0.34,-0.34 0,-0.2 -0.14,-0.37 -0.34,-0.37z"/>
      </g>
      <g id="_286110208">
       <path class="fil0" d="M14.4 10.15l-1.34 0c-0.09,0 -0.17,-0.06 -0.17,-0.17 0,-0.09 0.08,-0.17 0.17,-0.17l1.34 0c0.08,0 0.17,0.08 0.17,0.17 0,0.11 -0.09,0.17 -0.17,0.17z"/>
      </g>
      <g id="_286109872">
       <path class="fil0" d="M14.91 10.66c-0.37,0 -0.68,-0.28 -0.68,-0.68 0,-0.37 0.31,-0.69 0.68,-0.69 0.37,0 0.69,0.32 0.69,0.69 0,0.4 -0.32,0.68 -0.69,0.68zm0 -1.03c-0.2,0 -0.34,0.18 -0.34,0.35 0,0.2 0.14,0.34 0.34,0.34 0.2,0 0.34,-0.14 0.34,-0.34 0,-0.17 -0.14,-0.35 -0.34,-0.35z"/>
      </g>
      <g id="_286109752">
       <path class="fil0" d="M5.53 8.46l-1.35 0c-0.08,0 -0.17,-0.08 -0.17,-0.17 0,-0.08 0.09,-0.17 0.17,-0.17l1.35 0c0.08,0 0.17,0.09 0.17,0.17 0,0.09 -0.09,0.17 -0.17,0.17z"/>
      </g>
      <g id="_286110280">
       <path class="fil0" d="M3.67 8.98c-0.37,0 -0.68,-0.32 -0.68,-0.69 0,-0.37 0.31,-0.68 0.68,-0.68 0.37,0 0.69,0.31 0.69,0.68 0,0.37 -0.32,0.69 -0.69,0.69zm0 -1.03c-0.2,0 -0.34,0.14 -0.34,0.34 0,0.2 0.14,0.35 0.34,0.35 0.2,0 0.34,-0.15 0.34,-0.35 0,-0.2 -0.14,-0.34 -0.34,-0.34z"/>
      </g>
      <g id="_286109680">
       <path class="fil0" d="M5.53 6.78l-1.35 0c-0.08,0 -0.17,-0.09 -0.17,-0.17 0,-0.11 0.09,-0.17 0.17,-0.17l1.35 0c0.08,0 0.17,0.06 0.17,0.17 0,0.08 -0.09,0.17 -0.17,0.17z"/>
      </g>
      <g id="_286110352">
       <path class="fil0" d="M3.67 7.29c-0.37,0 -0.68,-0.31 -0.68,-0.68 0,-0.4 0.31,-0.71 0.68,-0.71 0.37,0 0.69,0.31 0.69,0.71 0,0.37 -0.32,0.68 -0.69,0.68zm0 -1.05c-0.2,0 -0.34,0.17 -0.34,0.37 0,0.17 0.14,0.34 0.34,0.34 0.2,0 0.34,-0.17 0.34,-0.34 0,-0.2 -0.14,-0.37 -0.34,-0.37z"/>
      </g>
      <g id="_286109824">
       <path class="fil0" d="M5.53 10.15l-1.35 0c-0.08,0 -0.17,-0.06 -0.17,-0.17 0,-0.09 0.09,-0.17 0.17,-0.17l1.35 0c0.08,0 0.17,0.08 0.17,0.17 0,0.11 -0.09,0.17 -0.17,0.17z"/>
      </g>
      <g id="_286110160">
       <path class="fil0" d="M3.67 10.66c-0.37,0 -0.68,-0.28 -0.68,-0.68 0,-0.37 0.31,-0.69 0.68,-0.69 0.37,0 0.69,0.32 0.69,0.69 0,0.4 -0.32,0.68 -0.69,0.68zm0 -1.03c-0.2,0 -0.34,0.18 -0.34,0.35 0,0.2 0.14,0.34 0.34,0.34 0.2,0 0.34,-0.14 0.34,-0.34 0,-0.17 -0.14,-0.35 -0.34,-0.35z"/>
      </g>
     </g>
    </g>
   </g>
  </g>
  <rect class="fil1" width="18.58" height="18.58"/>
 </g>
</svg>
