<?xml version="1.0" encoding="UTF-8"?>
<!DOCTYPE svg PUBLIC "-//W3C//DTD SVG 1.1//EN" "http://www.w3.org/Graphics/SVG/1.1/DTD/svg11.dtd">
<!-- Creator: CorelDRAW 2021 (64-Bit) -->
<svg xmlns="http://www.w3.org/2000/svg" xml:space="preserve" width="580px" height="140px" version="1.1" style="shape-rendering:geometricPrecision; text-rendering:geometricPrecision; image-rendering:optimizeQuality; fill-rule:evenodd; clip-rule:evenodd"
viewBox="0 0 15.43 3.72"
 xmlns:xlink="http://www.w3.org/1999/xlink"
 xmlns:xodm="http://www.corel.com/coreldraw/odm/2003">
 <defs>
  <style type="text/css">
   <![CDATA[
    .str0 {stroke:#201E1E;stroke-width:0.06;stroke-miterlimit:2.61313}
    .fil2 {fill:none;fill-rule:nonzero}
    .fil0 {fill:#FEFEFE}
    .fil1 {fill:#201E1E;fill-rule:nonzero}
   ]]>
  </style>
 </defs>
 <g id="Layer_x0020_1">
  <metadata id="CorelCorpID_0Corel-Layer"/>
  <path class="fil0" d="M1.86 0l11.71 0c1.02,0 1.86,0.84 1.86,1.86l0 0c0,1.02 -0.84,1.86 -1.86,1.86l-11.71 0c-1.02,0 -1.86,-0.84 -1.86,-1.86l0 0c0,-1.02 0.84,-1.86 1.86,-1.86z"/>
  <path class="fil1" d="M5.63 1.85c0,-0.05 0.01,-0.1 0.03,-0.16 0.01,-0.05 0.04,-0.1 0.08,-0.14 0.04,-0.04 0.08,-0.07 0.14,-0.1 0.05,-0.02 0.11,-0.04 0.18,-0.04 0.08,0 0.15,0.02 0.21,0.06 0.06,0.03 0.1,0.08 0.13,0.14l-0.13 0.09c-0.01,-0.03 -0.03,-0.05 -0.04,-0.07 -0.02,-0.01 -0.04,-0.03 -0.05,-0.04 -0.02,-0.01 -0.04,-0.01 -0.06,-0.02 -0.03,0 -0.04,-0.01 -0.06,-0.01 -0.05,0 -0.09,0.01 -0.12,0.03 -0.03,0.02 -0.05,0.04 -0.08,0.07 -0.02,0.03 -0.03,0.06 -0.04,0.09 -0.02,0.04 -0.02,0.07 -0.02,0.11 0,0.04 0.01,0.07 0.02,0.11 0.01,0.03 0.03,0.07 0.05,0.09 0.02,0.03 0.05,0.05 0.08,0.07 0.03,0.02 0.07,0.02 0.11,0.02 0.02,0 0.04,0 0.06,0 0.02,-0.01 0.04,-0.02 0.06,-0.03 0.02,-0.01 0.04,-0.02 0.05,-0.04 0.02,-0.01 0.03,-0.04 0.04,-0.06l0.14 0.08c-0.01,0.03 -0.03,0.06 -0.05,0.09 -0.03,0.02 -0.06,0.04 -0.09,0.06 -0.04,0.02 -0.07,0.03 -0.11,0.04 -0.04,0.01 -0.07,0.02 -0.11,0.02 -0.06,0 -0.12,-0.02 -0.17,-0.04 -0.05,-0.03 -0.1,-0.06 -0.13,-0.11 -0.04,-0.04 -0.07,-0.09 -0.09,-0.14 -0.02,-0.06 -0.03,-0.11 -0.03,-0.17z"/>
  <path class="fil1" d="M6.77 1.42l0.15 0 0.33 0.88 -0.17 0 -0.08 -0.22 -0.31 0 -0.08 0.22 -0.18 0 0.34 -0.88zm0.2 0.54l-0.13 -0.35 -0.12 0.35 0.25 0z"/>
  <polygon class="fil1" points="7.35,2.3 7.35,1.42 7.52,1.42 7.52,2.15 7.97,2.15 7.97,2.3 "/>
  <polygon class="fil1" points="8.08,2.3 8.08,1.42 8.25,1.42 8.25,2.15 8.69,2.15 8.69,2.3 "/>
  <path class="fil1" d="M9.44 2.15c0.04,0 0.07,-0.01 0.1,-0.02 0.03,-0.02 0.05,-0.04 0.07,-0.07 0.01,-0.02 0.02,-0.05 0.03,-0.09 0.01,-0.03 0.01,-0.07 0.01,-0.1l0 -0.45 0.17 0 0 0.45c0,0.06 -0.01,0.11 -0.02,0.17 -0.02,0.05 -0.04,0.1 -0.07,0.14 -0.03,0.04 -0.07,0.07 -0.12,0.09 -0.05,0.02 -0.11,0.03 -0.17,0.03 -0.07,0 -0.13,-0.01 -0.18,-0.03 -0.05,-0.03 -0.09,-0.06 -0.12,-0.1 -0.03,-0.04 -0.05,-0.09 -0.07,-0.14 -0.01,-0.05 -0.02,-0.11 -0.02,-0.16l0 -0.45 0.17 0 0 0.45c0,0.03 0.01,0.07 0.01,0.1 0.01,0.04 0.02,0.07 0.04,0.1 0.02,0.02 0.04,0.04 0.06,0.06 0.03,0.01 0.07,0.02 0.11,0.02z"/>
  <path class="fil1" d="M10.52 1.65c-0.01,-0.01 -0.02,-0.02 -0.03,-0.03 -0.02,0 -0.04,-0.01 -0.06,-0.02 -0.02,-0.01 -0.05,-0.02 -0.07,-0.03 -0.03,0 -0.05,-0.01 -0.08,-0.01 -0.05,0 -0.08,0.01 -0.1,0.03 -0.03,0.02 -0.04,0.04 -0.04,0.07 0,0.02 0.01,0.03 0.01,0.05 0.01,0.01 0.03,0.02 0.04,0.03 0.02,0.01 0.04,0.02 0.06,0.02 0.03,0.01 0.06,0.02 0.09,0.03 0.04,0.01 0.08,0.02 0.12,0.03 0.03,0.02 0.06,0.03 0.09,0.05 0.02,0.02 0.04,0.05 0.05,0.07 0.02,0.03 0.02,0.07 0.02,0.11 0,0.04 0,0.08 -0.02,0.12 -0.02,0.03 -0.04,0.06 -0.07,0.08 -0.03,0.02 -0.07,0.03 -0.11,0.04 -0.04,0.01 -0.08,0.02 -0.12,0.02 -0.07,0 -0.13,-0.01 -0.2,-0.03 -0.06,-0.02 -0.12,-0.05 -0.17,-0.09l0.07 -0.14c0.01,0 0.03,0.01 0.05,0.03 0.01,0.01 0.04,0.02 0.06,0.03 0.03,0.01 0.06,0.02 0.09,0.03 0.03,0.01 0.07,0.01 0.1,0.01 0.09,0 0.14,-0.03 0.14,-0.09 0,-0.01 0,-0.03 -0.01,-0.04 -0.02,-0.02 -0.03,-0.03 -0.05,-0.04 -0.02,-0.01 -0.04,-0.02 -0.07,-0.03 -0.03,-0.01 -0.06,-0.01 -0.1,-0.02 -0.04,-0.01 -0.07,-0.03 -0.11,-0.04 -0.03,-0.02 -0.05,-0.03 -0.07,-0.05 -0.02,-0.02 -0.04,-0.04 -0.05,-0.06 -0.01,-0.03 -0.02,-0.06 -0.02,-0.09 0,-0.05 0.01,-0.09 0.03,-0.12 0.02,-0.04 0.04,-0.06 0.07,-0.09 0.03,-0.02 0.06,-0.04 0.1,-0.05 0.04,-0.01 0.08,-0.02 0.13,-0.02 0.06,0 0.11,0.01 0.17,0.03 0.05,0.02 0.09,0.04 0.13,0.07l-0.07 0.14z"/>
  <polygon class="fil1" points="11.22,1.73 11.22,2.3 11.05,2.3 11.05,1.42 11.18,1.42 11.64,2 11.64,1.42 11.81,1.42 11.81,2.3 11.67,2.3 "/>
  <path class="fil1" d="M12.37 2.3c-0.06,0 -0.12,-0.01 -0.17,-0.03 -0.06,-0.03 -0.1,-0.06 -0.14,-0.1 -0.04,-0.05 -0.06,-0.09 -0.09,-0.15 -0.02,-0.05 -0.03,-0.11 -0.03,-0.16 0,-0.06 0.01,-0.12 0.04,-0.17 0.02,-0.05 0.05,-0.1 0.09,-0.14 0.04,-0.04 0.08,-0.08 0.13,-0.1 0.06,-0.03 0.11,-0.04 0.18,-0.04 0.06,0 0.12,0.01 0.17,0.04 0.05,0.03 0.1,0.06 0.13,0.1 0.04,0.05 0.07,0.09 0.09,0.15 0.02,0.05 0.03,0.1 0.03,0.16 0,0.06 -0.01,0.11 -0.03,0.17 -0.02,0.05 -0.05,0.1 -0.09,0.14 -0.04,0.04 -0.08,0.07 -0.14,0.1 -0.05,0.02 -0.11,0.03 -0.17,0.03zm-0.25 -0.44c0,0.04 0,0.07 0.01,0.11 0.02,0.03 0.03,0.07 0.06,0.09 0.02,0.03 0.04,0.05 0.08,0.07 0.03,0.01 0.06,0.02 0.1,0.02 0.04,0 0.08,-0.01 0.11,-0.02 0.04,-0.02 0.06,-0.04 0.08,-0.07 0.03,-0.03 0.04,-0.06 0.05,-0.1 0.02,-0.03 0.02,-0.07 0.02,-0.1 0,-0.04 -0.01,-0.08 -0.02,-0.11 -0.01,-0.04 -0.03,-0.07 -0.05,-0.1 -0.02,-0.02 -0.05,-0.05 -0.08,-0.06 -0.03,-0.02 -0.07,-0.03 -0.11,-0.03 -0.04,0 -0.07,0.01 -0.11,0.03 -0.03,0.02 -0.06,0.04 -0.08,0.07 -0.02,0.02 -0.03,0.06 -0.05,0.09 -0.01,0.04 -0.01,0.07 -0.01,0.11z"/>
  <polygon class="fil1" points="13.21,1.42 13.36,1.42 13.46,1.71 13.56,1.42 13.72,1.42 13.57,1.82 13.68,2.1 13.93,1.42 14.12,1.42 13.76,2.3 13.61,2.3 13.46,1.93 13.31,2.3 13.17,2.3 12.81,1.42 12.99,1.42 13.24,2.1 13.35,1.82 "/>
  <path class="fil1" d="M2.82 2.09c-0.04,-0.04 -0.09,-0.06 -0.14,-0.06 -0.05,0 -0.09,0.02 -0.14,0.06l-0.12 0.12c-0.01,0 -0.02,-0.01 -0.03,-0.01 -0.02,-0.01 -0.03,-0.02 -0.04,-0.02 -0.12,-0.08 -0.23,-0.18 -0.33,-0.31 -0.06,-0.06 -0.09,-0.11 -0.11,-0.17 0.03,-0.03 0.06,-0.06 0.09,-0.09 0.01,-0.01 0.02,-0.02 0.03,-0.03 0.09,-0.09 0.09,-0.2 0,-0.28l-0.11 -0.11c-0.01,-0.01 -0.02,-0.03 -0.03,-0.04 -0.03,-0.02 -0.05,-0.05 -0.08,-0.07 -0.04,-0.04 -0.09,-0.06 -0.13,-0.06 -0.05,0 -0.1,0.02 -0.14,0.06 0,0 0,0 0,0l-0.14 0.13c-0.05,0.06 -0.08,0.12 -0.09,0.19 -0.01,0.12 0.03,0.23 0.06,0.3 0.06,0.18 0.16,0.34 0.3,0.51 0.18,0.21 0.39,0.38 0.63,0.5 0.1,0.04 0.22,0.09 0.36,0.1 0.01,0 0.02,0 0.02,0 0.1,0 0.17,-0.03 0.24,-0.1 0,0 0,0 0,0 0.02,-0.02 0.04,-0.05 0.07,-0.07 0.02,-0.02 0.03,-0.03 0.05,-0.05 0.04,-0.04 0.06,-0.09 0.06,-0.14 0,-0.05 -0.02,-0.1 -0.06,-0.14l-0.22 -0.22zm0.4 -0.34c-0.04,-0.21 -0.14,-0.4 -0.29,-0.56 -0.15,-0.15 -0.34,-0.25 -0.55,-0.28 -0.03,-0.01 -0.06,0.01 -0.07,0.04 0,0.03 0.02,0.06 0.05,0.06 0.19,0.04 0.36,0.13 0.49,0.26 0.14,0.14 0.23,0.31 0.26,0.5 0,0.02 0.03,0.04 0.05,0.04 0.01,0 0.01,0 0.01,0 0.03,0 0.05,-0.03 0.05,-0.06zm-0.88 -0.39c0.11,0.02 0.2,0.07 0.28,0.14 0.08,0.08 0.13,0.18 0.14,0.28 0.01,0.03 0.03,0.05 0.06,0.05 0,0 0,0 0.01,0 0.03,-0.01 0.05,-0.04 0.04,-0.07 -0.02,-0.12 -0.08,-0.24 -0.17,-0.33 -0.1,-0.09 -0.21,-0.16 -0.34,-0.18 -0.03,0 -0.06,0.02 -0.06,0.05 -0.01,0.03 0.01,0.06 0.04,0.06zm0.62 1.15c0,0 0,0 0,0 -0.01,0.02 -0.03,0.03 -0.05,0.05 -0.02,0.03 -0.05,0.05 -0.07,0.08 -0.05,0.04 -0.09,0.07 -0.16,0.07 0,0 -0.01,0 -0.01,-0.01 -0.12,0 -0.23,-0.05 -0.32,-0.09 -0.23,-0.11 -0.43,-0.27 -0.59,-0.46 -0.14,-0.17 -0.23,-0.32 -0.29,-0.49 -0.04,-0.1 -0.05,-0.18 -0.05,-0.25 0.01,-0.05 0.02,-0.09 0.06,-0.12l0.14 -0.14c0.02,-0.01 0.04,-0.02 0.06,-0.02 0.02,0 0.04,0.01 0.06,0.02 0,0 0,0 0,0 0.02,0.03 0.04,0.05 0.07,0.08 0.01,0.01 0.02,0.02 0.04,0.04l0.11 0.11c0.04,0.04 0.04,0.08 0,0.12 -0.01,0.01 -0.03,0.02 -0.04,0.04 -0.03,0.03 -0.06,0.06 -0.1,0.09 0,0 0,0 0,0.01 -0.04,0.03 -0.03,0.06 -0.02,0.09 0,0 0,0 0,0 0.03,0.07 0.07,0.13 0.13,0.21l0 0c0.11,0.14 0.23,0.25 0.36,0.33 0.01,0.01 0.03,0.02 0.05,0.03 0.01,0 0.03,0.01 0.04,0.02 0,0 0,0 0,0 0.02,0.01 0.03,0.01 0.04,0.01 0.04,0 0.06,-0.02 0.06,-0.03l0.14 -0.14c0.01,-0.01 0.04,-0.03 0.06,-0.03 0.03,0 0.05,0.02 0.06,0.03 0,0 0,0 0,0l0.22 0.23c0.04,0.04 0.04,0.08 0,0.12z"/>
  <line class="fil2 str0" x1="4.44" y1="0.49" x2="4.44" y2= "3.23" />
 </g>
</svg>
