<?xml version="1.0" encoding="UTF-8"?>
<!DOCTYPE svg PUBLIC "-//W3C//DTD SVG 1.1//EN" "http://www.w3.org/Graphics/SVG/1.1/DTD/svg11.dtd">
<!-- Creator: CorelDRAW 2021 (64-Bit) -->
<svg xmlns="http://www.w3.org/2000/svg" xml:space="preserve" width="648px" height="140px" version="1.1" style="shape-rendering:geometricPrecision; text-rendering:geometricPrecision; image-rendering:optimizeQuality; fill-rule:evenodd; clip-rule:evenodd"
viewBox="0 0 18.21 3.93"
 xmlns:xlink="http://www.w3.org/1999/xlink"
 xmlns:xodm="http://www.corel.com/coreldraw/odm/2003">
 <defs>
  <style type="text/css">
   <![CDATA[
    .str0 {stroke:#FEFEFE;stroke-width:0.06;stroke-miterlimit:2.61313}
    .fil2 {fill:none;fill-rule:nonzero}
    .fil0 {fill:#201E1E}
    .fil1 {fill:#FEFEFE;fill-rule:nonzero}
   ]]>
  </style>
 </defs>
 <g id="Layer_x0020_1">
  <metadata id="CorelCorpID_0Corel-Layer"/>
  <path class="fil0" d="M1.96 0l14.28 0c1.08,0 1.97,0.88 1.97,1.96l0 0c0,1.08 -0.89,1.97 -1.97,1.97l-14.28 0c-1.08,0 -1.96,-0.89 -1.96,-1.97l0 0c0,-1.08 0.88,-1.96 1.96,-1.96z"/>
  <path class="fil1" d="M6.99 2.44c-0.06,0 -0.13,-0.02 -0.18,-0.05 -0.06,-0.02 -0.1,-0.06 -0.14,-0.1 -0.04,-0.04 -0.07,-0.1 -0.1,-0.15 -0.02,-0.06 -0.03,-0.12 -0.03,-0.18 0,-0.06 0.01,-0.12 0.04,-0.17 0.02,-0.06 0.05,-0.11 0.09,-0.15 0.04,-0.05 0.09,-0.08 0.15,-0.11 0.05,-0.02 0.11,-0.04 0.18,-0.04 0.06,0 0.13,0.02 0.18,0.04 0.06,0.03 0.1,0.07 0.14,0.11 0.04,0.05 0.07,0.1 0.09,0.15 0.03,0.06 0.04,0.12 0.04,0.18 0,0.06 -0.01,0.12 -0.04,0.17 -0.02,0.06 -0.05,0.11 -0.09,0.15 -0.04,0.05 -0.09,0.08 -0.14,0.11 -0.06,0.02 -0.12,0.04 -0.19,0.04zm-0.27 -0.48c0,0.04 0.01,0.08 0.02,0.12 0.01,0.04 0.03,0.07 0.06,0.1 0.02,0.03 0.05,0.05 0.08,0.07 0.03,0.02 0.07,0.03 0.11,0.03 0.05,0 0.09,-0.01 0.12,-0.03 0.03,-0.02 0.06,-0.04 0.09,-0.07 0.02,-0.03 0.04,-0.07 0.05,-0.1 0.01,-0.04 0.02,-0.08 0.02,-0.12 0,-0.04 -0.01,-0.07 -0.02,-0.11 -0.02,-0.04 -0.03,-0.07 -0.06,-0.1 -0.02,-0.03 -0.05,-0.05 -0.08,-0.07 -0.04,-0.02 -0.07,-0.03 -0.12,-0.03 -0.04,0 -0.08,0.01 -0.11,0.03 -0.04,0.02 -0.06,0.04 -0.09,0.07 -0.02,0.03 -0.04,0.06 -0.05,0.1 -0.01,0.04 -0.02,0.08 -0.02,0.11z"/>
  <path class="fil1" d="M7.59 2.43l0 -0.93 0.41 0c0.04,0 0.08,0.01 0.12,0.03 0.03,0.01 0.06,0.04 0.09,0.07 0.03,0.03 0.05,0.06 0.06,0.1 0.02,0.03 0.02,0.07 0.02,0.11 0,0.06 -0.01,0.11 -0.04,0.16 -0.03,0.05 -0.07,0.09 -0.12,0.11l0.21 0.35 -0.21 0 -0.19 -0.31 -0.17 0 0 0.31 -0.18 0zm0.18 -0.47l0.22 0c0.02,0 0.04,-0.01 0.05,-0.01 0.01,-0.01 0.03,-0.02 0.04,-0.04 0.01,-0.01 0.02,-0.02 0.02,-0.04 0.01,-0.02 0.01,-0.04 0.01,-0.06 0,-0.02 0,-0.04 -0.01,-0.06 -0.01,-0.02 -0.02,-0.04 -0.03,-0.05 -0.01,-0.01 -0.02,-0.02 -0.04,-0.03 -0.01,-0.01 -0.03,-0.01 -0.04,-0.01l-0.22 0 0 0.3z"/>
  <path class="fil1" d="M8.46 2.43l0 -0.93 0.33 0c0.08,0 0.15,0.01 0.2,0.04 0.06,0.02 0.11,0.05 0.15,0.1 0.04,0.04 0.06,0.09 0.08,0.14 0.02,0.06 0.03,0.12 0.03,0.18 0,0.07 -0.01,0.14 -0.03,0.19 -0.02,0.06 -0.05,0.11 -0.09,0.15 -0.04,0.04 -0.09,0.07 -0.15,0.09 -0.05,0.03 -0.12,0.04 -0.19,0.04l-0.33 0zm0.61 -0.47c0,-0.04 -0.01,-0.08 -0.02,-0.12 -0.01,-0.04 -0.03,-0.07 -0.05,-0.1 -0.02,-0.02 -0.05,-0.05 -0.09,-0.06 -0.03,-0.01 -0.07,-0.02 -0.12,-0.02l-0.15 0 0 0.61 0.15 0c0.05,0 0.09,-0.01 0.12,-0.02 0.04,-0.02 0.07,-0.04 0.09,-0.07 0.02,-0.03 0.04,-0.06 0.05,-0.1 0.01,-0.03 0.02,-0.07 0.02,-0.12z"/>
  <polygon class="fil1" points="10.04,2.27 10.04,2.43 9.39,2.43 9.39,1.5 10.03,1.5 10.03,1.66 9.57,1.66 9.57,1.88 9.97,1.88 9.97,2.03 9.57,2.03 9.57,2.27 "/>
  <path class="fil1" d="M10.18 2.43l0 -0.93 0.41 0c0.05,0 0.08,0.01 0.12,0.03 0.04,0.01 0.07,0.04 0.09,0.07 0.03,0.03 0.05,0.06 0.07,0.1 0.01,0.03 0.02,0.07 0.02,0.11 0,0.06 -0.02,0.11 -0.05,0.16 -0.03,0.05 -0.07,0.09 -0.12,0.11l0.21 0.35 -0.2 0 -0.19 -0.31 -0.18 0 0 0.31 -0.18 0zm0.18 -0.47l0.23 0c0.01,0 0.03,-0.01 0.05,-0.01 0.01,-0.01 0.02,-0.02 0.03,-0.04 0.01,-0.01 0.02,-0.02 0.03,-0.04 0,-0.02 0.01,-0.04 0.01,-0.06 0,-0.02 -0.01,-0.04 -0.01,-0.06 -0.01,-0.02 -0.02,-0.04 -0.03,-0.05 -0.01,-0.01 -0.03,-0.02 -0.04,-0.03 -0.02,-0.01 -0.03,-0.01 -0.05,-0.01l-0.22 0 0 0.3z"/>
  <polygon class="fil1" points="11.55,1.83 11.55,2.43 11.37,2.43 11.37,1.5 11.51,1.5 11.99,2.11 11.99,1.5 12.17,1.5 12.17,2.43 12.02,2.43 "/>
  <path class="fil1" d="M12.76 2.44c-0.07,0 -0.13,-0.02 -0.18,-0.05 -0.06,-0.02 -0.11,-0.06 -0.15,-0.1 -0.04,-0.04 -0.07,-0.1 -0.09,-0.15 -0.02,-0.06 -0.03,-0.12 -0.03,-0.18 0,-0.06 0.01,-0.12 0.03,-0.17 0.03,-0.06 0.06,-0.11 0.1,-0.15 0.04,-0.05 0.09,-0.08 0.14,-0.11 0.06,-0.02 0.12,-0.04 0.18,-0.04 0.07,0 0.13,0.02 0.19,0.04 0.05,0.03 0.1,0.07 0.14,0.11 0.04,0.05 0.07,0.1 0.09,0.15 0.02,0.06 0.04,0.12 0.04,0.18 0,0.06 -0.02,0.12 -0.04,0.17 -0.02,0.06 -0.05,0.11 -0.09,0.15 -0.04,0.05 -0.09,0.08 -0.15,0.11 -0.05,0.02 -0.11,0.04 -0.18,0.04zm-0.27 -0.48c0,0.04 0.01,0.08 0.02,0.12 0.01,0.04 0.03,0.07 0.05,0.1 0.03,0.03 0.05,0.05 0.09,0.07 0.03,0.02 0.07,0.03 0.11,0.03 0.05,0 0.08,-0.01 0.12,-0.03 0.03,-0.02 0.06,-0.04 0.08,-0.07 0.03,-0.03 0.04,-0.07 0.06,-0.1 0.01,-0.04 0.01,-0.08 0.01,-0.12 0,-0.04 0,-0.07 -0.01,-0.11 -0.02,-0.04 -0.04,-0.07 -0.06,-0.1 -0.02,-0.03 -0.05,-0.05 -0.08,-0.07 -0.04,-0.02 -0.08,-0.03 -0.12,-0.03 -0.04,0 -0.08,0.01 -0.11,0.03 -0.04,0.02 -0.07,0.04 -0.09,0.07 -0.02,0.03 -0.04,0.06 -0.05,0.1 -0.01,0.04 -0.02,0.08 -0.02,0.11z"/>
  <polygon class="fil1" points="13.64,1.5 13.81,1.5 13.91,1.81 14.02,1.5 14.18,1.5 14.03,1.92 14.14,2.22 14.41,1.5 14.6,1.5 14.22,2.43 14.07,2.43 13.91,2.04 13.75,2.43 13.6,2.43 13.22,1.5 13.42,1.5 13.68,2.22 13.8,1.92 "/>
  <line class="fil2 str0" x1="5.12" y1="0.52" x2="5.12" y2= "3.41" />
  <path class="fil1" d="M1.92 1.12c0.03,0 0.05,0.02 0.05,0.04 0,0.03 -0.02,0.05 -0.05,0.05 -0.02,0 -0.04,-0.02 -0.04,-0.05 0,-0.02 0.02,-0.04 0.04,-0.04z"/>
  <path class="fil1" d="M2.11 1.12c0.03,0 0.05,0.02 0.05,0.04 0,0.03 -0.02,0.05 -0.05,0.05 -0.02,0 -0.05,-0.02 -0.05,-0.05 0,-0.02 0.03,-0.04 0.05,-0.04z"/>
  <path class="fil1" d="M2.3 1.12c0.03,0 0.05,0.02 0.05,0.04 0,0.03 -0.02,0.05 -0.05,0.05 -0.03,0 -0.05,-0.02 -0.05,-0.05 0,-0.02 0.02,-0.04 0.05,-0.04z"/>
  <path class="fil1" d="M2.21 1.87l1.03 0c0.03,0 0.05,-0.02 0.05,-0.05 0,-0.02 -0.02,-0.04 -0.05,-0.04l-1.03 0c-0.03,0 -0.05,0.02 -0.05,0.04 0,0.03 0.02,0.05 0.05,0.05z"/>
  <path class="fil1" d="M2.77 2.34l-0.56 0c-0.03,0 -0.05,0.02 -0.05,0.05 0,0.02 0.02,0.05 0.05,0.05l0.56 0c0.03,0 0.05,-0.03 0.05,-0.05 0,-0.03 -0.02,-0.05 -0.05,-0.05z"/>
  <path class="fil1" d="M3.83 1.73l-0.07 0.07 -0.12 -0.12 0.07 -0.07c0.01,-0.01 0.04,-0.02 0.06,-0.02 0.05,0 0.09,0.04 0.09,0.08 0,0.03 -0.01,0.05 -0.03,0.06zm-0.56 0.57l-0.16 0.03 0.04 -0.15 0.42 -0.43 0.12 0.12 -0.42 0.43zm0.4 0.51c0,0.05 -0.05,0.1 -0.1,0.1l-1.69 0c-0.06,0 -0.1,-0.05 -0.1,-0.1l0 -1.41 1.89 0 0 0.12c-0.01,0.01 -0.02,0.02 -0.03,0.03l-0.51 0.51 -0.92 0c-0.03,0 -0.05,0.02 -0.05,0.05 0,0.02 0.02,0.04 0.05,0.04l0.84 0 -0.04 0.23c0,0.01 0,0.03 0.01,0.04 0.01,0.01 0.02,0.02 0.03,0.02 0.01,0 0.01,-0.01 0.01,-0.01l0.24 -0.04c0.01,0 0.02,-0.01 0.02,-0.02l0.35 -0.34 0 0.78zm-1.79 -1.79l1.69 0c0.05,0 0.1,0.04 0.1,0.1l0 0.18 -1.89 0 0 -0.18c0,-0.06 0.04,-0.1 0.1,-0.1zm1.89 0.47c0,0 -0.01,0 -0.01,0l0 -0.37c0,-0.11 -0.08,-0.19 -0.19,-0.19l-1.69 0c-0.11,0 -0.19,0.08 -0.19,0.19l0 1.69c0,0.11 0.08,0.19 0.19,0.19l1.69 0c0.11,0 0.19,-0.08 0.19,-0.19l0 -0.87 0.14 -0.14c0,0 0,0 0,0 0.03,-0.03 0.05,-0.08 0.05,-0.13 0,-0.1 -0.08,-0.18 -0.18,-0.18z"/>
 </g>
</svg>
