<?xml version="1.0" encoding="UTF-8"?>
<!DOCTYPE svg PUBLIC "-//W3C//DTD SVG 1.1//EN" "http://www.w3.org/Graphics/SVG/1.1/DTD/svg11.dtd">
<!-- Creator: CorelDRAW 2021 (64-Bit) -->
<svg xmlns="http://www.w3.org/2000/svg" xml:space="preserve" width="196px" height="300px" version="1.1" style="shape-rendering:geometricPrecision; text-rendering:geometricPrecision; image-rendering:optimizeQuality; fill-rule:evenodd; clip-rule:evenodd"
viewBox="0 0 209.97 321.29"
 xmlns:xlink="http://www.w3.org/1999/xlink"
 xmlns:xodm="http://www.corel.com/coreldraw/odm/2003">
 <defs>
  <style type="text/css">
   <![CDATA[
    .str0 {stroke:#FEFEFE;stroke-width:1.03;stroke-linecap:round;stroke-linejoin:round;stroke-miterlimit:22.9256}
    .fil2 {fill:none}
    .fil3 {fill:#FEFEFE}
    .fil0 {fill:#049902}
    .fil1 {fill:#FEFEFE;fill-rule:nonzero}
   ]]>
  </style>
   <clipPath id="id0">
    <rect width="209.97" height="321.29"/>
   </clipPath>
   <clipPath id="id1">
    <path d="M70.17 268.38c3.77,0 6.83,4.15 6.83,9.26 0,5.11 -3.06,9.26 -6.83,9.26 -3.77,0 -6.82,-4.15 -6.82,-9.26 0,-5.11 3.05,-9.26 6.82,-9.26z"/>
   </clipPath>
   <clipPath id="id2">
    <path d="M194.03 131.02c-3.9,-0.17 -7.25,3.98 -7.48,9.27 -0.23,5.3 2.74,9.72 6.64,9.89 3.9,0.17 7.25,-3.98 7.48,-9.27 0.23,-5.29 -2.74,-9.72 -6.64,-9.89z"/>
   </clipPath>
 </defs>
 <g id="Layer_x0020_1">
  <metadata id="CorelCorpID_0Corel-Layer"/>
  <g style="clip-path:url(#id0)">
   <image x="0" y="0" width="209.97" height="321.29" xlink:href="Developer_Images\Developer_ImgID1.png"/>
  </g>
  <polygon class="fil0" points="206.17,71.23 114.2,33.37 114.2,63.52 206.36,97.39 "/>
  <polygon class="fil0" points="113.9,285.15 114.25,258.85 207.35,267.93 207.98,291.19 "/>
  <polygon class="fil0" points="3.38,124.9 2.53,102.11 80.71,73.3 80.71,99.7 "/>
  <path class="fil0" d="M70.17 268.38c3.77,0 6.83,4.15 6.83,9.26 0,5.11 -3.06,9.26 -6.83,9.26 -3.77,0 -6.82,-4.15 -6.82,-9.26 0,-5.11 3.05,-9.26 6.82,-9.26z"/>
  <g style="clip-path:url(#id1)">
   <g id="_1563090779088">
    <g>
     <path id="_1" class="fil1" d="M67.37 271.88c-0.55,0 -1,0.61 -1,1.36 0,0.75 0.45,1.37 1,1.37 0.56,0 1.01,-0.62 1.01,-1.37 0,-0.75 -0.45,-1.36 -1.01,-1.36zm0 1.95c-0.24,0 -0.43,-0.27 -0.43,-0.59 0,-0.32 0.19,-0.58 0.43,-0.58 0.24,0 0.43,0.26 0.43,0.58 0,0.32 -0.19,0.59 -0.43,0.59zm0 0z"/>
     <path class="fil1" d="M69.96 271.88c-0.56,0 -1.01,0.61 -1.01,1.36 0,0.75 0.45,1.37 1.01,1.37 0.55,0 1,-0.62 1,-1.37 0,-0.75 -0.45,-1.36 -1,-1.36zm0 1.95c-0.24,0 -0.43,-0.27 -0.43,-0.59 0,-0.32 0.19,-0.58 0.43,-0.58 0.23,0 0.43,0.26 0.43,0.58 0,0.32 -0.2,0.59 -0.43,0.59zm0 0z"/>
     <path class="fil1" d="M72.57 274.61c0.55,0 1,-0.62 1,-1.37 0,-0.75 -0.45,-1.36 -1,-1.36 -0.56,0 -1.01,0.61 -1.01,1.36 0,0.75 0.45,1.37 1.01,1.37zm0 -1.95c0.23,0 0.43,0.26 0.43,0.58 0,0.32 -0.2,0.59 -0.43,0.59 -0.24,0 -0.43,-0.27 -0.43,-0.59 0,-0.32 0.19,-0.58 0.43,-0.58zm0 0z"/>
     <path class="fil1" d="M67.37 275.41c-0.55,0 -1,0.62 -1,1.37 0,0.75 0.45,1.36 1,1.36 0.56,0 1.01,-0.61 1.01,-1.36 0,-0.75 -0.45,-1.37 -1.01,-1.37zm0 1.95c-0.24,0 -0.43,-0.26 -0.43,-0.58 0,-0.32 0.19,-0.59 0.43,-0.59 0.24,0 0.43,0.27 0.43,0.59 0,0.32 -0.19,0.58 -0.43,0.58zm0 0z"/>
     <path class="fil1" d="M69.96 275.41c-0.56,0 -1.01,0.62 -1.01,1.37 0,0.75 0.45,1.36 1.01,1.36 0.55,0 1,-0.61 1,-1.36 0,-0.75 -0.45,-1.37 -1,-1.37zm0 1.95c-0.24,0 -0.43,-0.26 -0.43,-0.58 0,-0.32 0.19,-0.59 0.43,-0.59 0.23,0 0.43,0.27 0.43,0.59 0,0.32 -0.2,0.58 -0.43,0.58zm0 0z"/>
     <path class="fil1" d="M72.57 275.41c-0.56,0 -1.01,0.62 -1.01,1.37 0,0.75 0.45,1.36 1.01,1.36 0.55,0 1,-0.61 1,-1.36 0,-0.75 -0.45,-1.37 -1,-1.37zm0 1.95c-0.24,0 -0.43,-0.26 -0.43,-0.58 0,-0.32 0.19,-0.59 0.43,-0.59 0.23,0 0.43,0.27 0.43,0.59 0,0.32 -0.2,0.58 -0.43,0.58zm0 0z"/>
     <path class="fil1" d="M67.37 278.92c-0.55,0 -1,0.61 -1,1.37 0,0.75 0.45,1.36 1,1.36 0.56,0 1.01,-0.61 1.01,-1.36 0,-0.76 -0.45,-1.37 -1.01,-1.37zm0 1.95c-0.24,0 -0.43,-0.26 -0.43,-0.58 0,-0.33 0.19,-0.59 0.43,-0.59 0.24,0 0.43,0.26 0.43,0.59 0,0.32 -0.19,0.58 -0.43,0.58zm0 0z"/>
     <path class="fil1" d="M69.96 278.92c-0.56,0 -1.01,0.61 -1.01,1.37 0,0.75 0.45,1.36 1.01,1.36 0.55,0 1,-0.61 1,-1.36 0,-0.76 -0.45,-1.37 -1,-1.37zm0 1.95c-0.24,0 -0.43,-0.26 -0.43,-0.58 0,-0.33 0.19,-0.59 0.43,-0.59 0.23,0 0.43,0.26 0.43,0.59 0,0.32 -0.2,0.58 -0.43,0.58zm0 0z"/>
     <path class="fil1" d="M69.96 282.46c-0.56,0 -1.01,0.61 -1.01,1.36 0,0.76 0.45,1.37 1.01,1.37 0.55,0 1,-0.61 1,-1.37 0,-0.75 -0.45,-1.36 -1,-1.36zm0 1.95c-0.24,0 -0.43,-0.26 -0.43,-0.59 0,-0.32 0.19,-0.58 0.43,-0.58 0.23,0 0.43,0.26 0.43,0.58 0,0.33 -0.2,0.59 -0.43,0.59zm0 0z"/>
     <path class="fil1" d="M72.57 278.92c-0.56,0 -1.01,0.61 -1.01,1.37 0,0.75 0.45,1.36 1.01,1.36 0.55,0 1,-0.61 1,-1.36 0,-0.76 -0.45,-1.37 -1,-1.37zm0 1.95c-0.24,0 -0.43,-0.26 -0.43,-0.58 0,-0.33 0.19,-0.59 0.43,-0.59 0.23,0 0.43,0.26 0.43,0.59 0,0.32 -0.2,0.58 -0.43,0.58zm0 0z"/>
    </g>
   </g>
  </g>
  <path class="fil2" d="M70.17 268.38c3.77,0 6.83,4.15 6.83,9.26 0,5.11 -3.06,9.26 -6.83,9.26 -3.77,0 -6.82,-4.15 -6.82,-9.26 0,-5.11 3.05,-9.26 6.82,-9.26z"/>
  <path class="fil0" d="M194.03 131.02c-3.9,-0.17 -7.25,3.98 -7.48,9.27 -0.23,5.3 2.74,9.72 6.64,9.89 3.9,0.17 7.25,-3.98 7.48,-9.27 0.23,-5.29 -2.74,-9.72 -6.64,-9.89z"/>
  <g style="clip-path:url(#id2)">
   <g id="_1563090785856">
    <g>
     <path id="_1_0" class="fil1" d="M196.77 134.77c0.57,0.02 1.01,0.67 0.98,1.45 -0.04,0.78 -0.53,1.39 -1.1,1.37 -0.58,-0.03 -1.02,-0.68 -0.98,-1.46 0.03,-0.78 0.52,-1.39 1.1,-1.36zm-0.09 2.01c0.25,0.01 0.46,-0.25 0.47,-0.58 0.02,-0.34 -0.17,-0.62 -0.42,-0.63 -0.24,-0.01 -0.45,0.25 -0.47,0.59 -0.01,0.33 0.17,0.61 0.42,0.62zm0 0z"/>
     <path class="fil1" d="M194.09 134.65c0.58,0.02 1.02,0.68 0.98,1.46 -0.03,0.78 -0.53,1.39 -1.1,1.36 -0.57,-0.02 -1.01,-0.68 -0.98,-1.45 0.03,-0.78 0.53,-1.4 1.1,-1.37zm-0.09 2.02c0.25,0.01 0.46,-0.26 0.48,-0.59 0.01,-0.33 -0.18,-0.61 -0.42,-0.62 -0.25,-0.01 -0.46,0.25 -0.47,0.58 -0.02,0.34 0.17,0.62 0.41,0.63zm0 0z"/>
     <path class="fil1" d="M191.27 137.36c-0.57,-0.03 -1.01,-0.68 -0.98,-1.46 0.03,-0.78 0.53,-1.39 1.1,-1.37 0.58,0.03 1.02,0.68 0.98,1.46 -0.03,0.78 -0.53,1.39 -1.1,1.37zm0.09 -2.02c-0.25,-0.01 -0.46,0.25 -0.47,0.58 -0.02,0.34 0.17,0.62 0.42,0.63 0.24,0.01 0.45,-0.25 0.47,-0.59 0.01,-0.33 -0.18,-0.61 -0.42,-0.62zm0 0z"/>
     <path class="fil1" d="M196.61 138.42c0.57,0.03 1.01,0.68 0.98,1.46 -0.04,0.78 -0.53,1.39 -1.1,1.37 -0.58,-0.03 -1.02,-0.68 -0.98,-1.46 0.03,-0.78 0.53,-1.39 1.1,-1.37zm-0.09 2.02c0.25,0.01 0.46,-0.25 0.47,-0.58 0.02,-0.34 -0.17,-0.62 -0.42,-0.63 -0.24,-0.01 -0.45,0.25 -0.47,0.59 -0.01,0.33 0.18,0.61 0.42,0.62zm0 0z"/>
     <path class="fil1" d="M193.93 138.31c0.58,0.02 1.02,0.68 0.98,1.45 -0.03,0.78 -0.53,1.4 -1.1,1.37 -0.57,-0.02 -1.01,-0.68 -0.98,-1.46 0.04,-0.77 0.53,-1.39 1.1,-1.36zm-0.08 2.01c0.24,0.02 0.45,-0.25 0.47,-0.58 0.01,-0.33 -0.18,-0.61 -0.42,-0.63 -0.25,-0.01 -0.46,0.26 -0.47,0.59 -0.02,0.33 0.17,0.61 0.42,0.62zm0 0z"/>
     <path class="fil1" d="M191.23 138.19c0.58,0.02 1.02,0.68 0.98,1.46 -0.03,0.78 -0.53,1.39 -1.1,1.36 -0.57,-0.02 -1.01,-0.67 -0.98,-1.45 0.04,-0.78 0.53,-1.4 1.1,-1.37zm-0.08 2.02c0.24,0.01 0.45,-0.25 0.47,-0.59 0.01,-0.33 -0.18,-0.61 -0.42,-0.62 -0.25,-0.01 -0.46,0.25 -0.47,0.58 -0.02,0.34 0.17,0.62 0.42,0.63zm0 0z"/>
     <path class="fil1" d="M196.45 142.06c0.57,0.02 1.01,0.67 0.98,1.45 -0.03,0.78 -0.53,1.39 -1.1,1.37 -0.58,-0.03 -1.02,-0.68 -0.98,-1.46 0.03,-0.78 0.53,-1.39 1.1,-1.36zm-0.09 2.01c0.25,0.01 0.46,-0.25 0.48,-0.58 0.01,-0.34 -0.18,-0.62 -0.42,-0.63 -0.25,-0.01 -0.46,0.25 -0.48,0.59 -0.01,0.33 0.18,0.61 0.42,0.62zm0 0z"/>
     <path class="fil1" d="M193.78 141.94c0.57,0.02 1.01,0.68 0.97,1.46 -0.03,0.78 -0.52,1.39 -1.1,1.36 -0.57,-0.02 -1.01,-0.68 -0.98,-1.45 0.04,-0.78 0.53,-1.4 1.11,-1.37zm-0.09 2.02c0.24,0.01 0.45,-0.26 0.47,-0.59 0.01,-0.33 -0.17,-0.61 -0.42,-0.62 -0.25,-0.01 -0.46,0.25 -0.47,0.58 -0.02,0.34 0.17,0.62 0.42,0.63zm0 0z"/>
     <path class="fil1" d="M193.62 145.6c0.57,0.02 1.01,0.68 0.97,1.45 -0.03,0.78 -0.52,1.4 -1.1,1.37 -0.57,-0.02 -1.01,-0.68 -0.98,-1.46 0.04,-0.77 0.53,-1.39 1.11,-1.36zm-0.09 2.01c0.24,0.02 0.46,-0.25 0.47,-0.58 0.01,-0.33 -0.17,-0.61 -0.42,-0.63 -0.25,-0.01 -0.46,0.26 -0.47,0.59 -0.02,0.33 0.17,0.61 0.42,0.62zm0 0z"/>
     <path class="fil1" d="M191.08 141.82c0.57,0.03 1.01,0.68 0.97,1.46 -0.03,0.78 -0.52,1.39 -1.1,1.37 -0.57,-0.03 -1.01,-0.68 -0.98,-1.46 0.04,-0.78 0.53,-1.39 1.11,-1.37zm-0.09 2.02c0.24,0.01 0.46,-0.25 0.47,-0.59 0.01,-0.33 -0.17,-0.61 -0.42,-0.62 -0.25,-0.01 -0.46,0.25 -0.47,0.58 -0.02,0.34 0.17,0.62 0.42,0.63zm0 0z"/>
    </g>
   </g>
  </g>
  <path class="fil2" d="M194.03 131.02c-3.9,-0.17 -7.25,3.98 -7.48,9.27 -0.23,5.3 2.74,9.72 6.64,9.89 3.9,0.17 7.25,-3.98 7.48,-9.27 0.23,-5.29 -2.74,-9.72 -6.64,-9.89z"/>
  <path class="fil1" d="M132.4 61.47l0.29 -2.95 -2.21 -5.14 1.08 0.46 1.12 2.69c0.21,0.5 0.4,0.99 0.58,1.48 0.24,-0.28 0.53,-0.58 0.86,-0.9l1.51 -1.48 1.04 0.45 -3.09 2.84 -0.29 2.94 -0.89 -0.39z"/>
  <path id="_1_1" class="fil1" d="M136.84 59.88c0.11,-1.15 0.5,-1.93 1.16,-2.32 0.67,-0.39 1.48,-0.37 2.43,0.04 0.62,0.28 1.17,0.68 1.63,1.2 0.47,0.53 0.81,1.12 1.02,1.78 0.21,0.67 0.28,1.35 0.21,2.04 -0.07,0.71 -0.27,1.28 -0.6,1.71 -0.33,0.44 -0.76,0.69 -1.29,0.75 -0.54,0.07 -1.1,-0.03 -1.68,-0.28 -0.64,-0.28 -1.19,-0.69 -1.66,-1.22 -0.47,-0.54 -0.8,-1.13 -1.01,-1.79 -0.2,-0.66 -0.27,-1.3 -0.21,-1.91zm0.92 0.42c-0.09,0.84 0.07,1.59 0.46,2.27 0.39,0.67 0.91,1.15 1.57,1.44 0.67,0.29 1.24,0.29 1.73,-0.01 0.48,-0.29 0.76,-0.89 0.85,-1.78 0.06,-0.57 0.01,-1.1 -0.13,-1.61 -0.15,-0.5 -0.39,-0.95 -0.72,-1.33 -0.33,-0.39 -0.72,-0.68 -1.17,-0.88 -0.63,-0.27 -1.19,-0.29 -1.69,-0.04 -0.5,0.25 -0.8,0.9 -0.9,1.94z"/>
  <line class="fil2 str0" x1="118.31" y1="51.75" x2="122.61" y2= "53.38" />
  <line class="fil2 str0" x1="118.14" y1="53.71" x2="122.44" y2= "55.34" />
  <line class="fil2 str0" x1="118.14" y1="55.53" x2="122.44" y2= "57.17" />
  <g id="_1563090790560">
   <ellipse class="fil3" cx="199.68" cy="80.58" rx="0.41" ry="0.52"/>
   <ellipse class="fil3" cx="199.68" cy="82.79" rx="0.41" ry="0.52"/>
   <ellipse class="fil3" cx="199.67" cy="85" rx="0.41" ry="0.52"/>
  </g>
  <g id="_1563090790176">
   <g>
    <g>
     <path class="fil1" d="M168.44 278.51l-2.78 -1.7c-0.99,-0.61 -2.08,-0.2 -2,0.72 0.05,0.64 -0.52,1.06 -1.21,0.99 -1.56,-0.18 -4.22,-1.76 -5.17,-3.16 -0.47,-0.59 -0.33,-1.33 0.22,-1.6 0.81,-0.38 0.61,-1.57 -0.39,-2.18l-2.78 -1.71c-0.76,-0.41 -1.61,-0.32 -1.91,0.21l-0.81 1.45c-0.77,1.52 2.23,5 6.9,7.85 4.67,2.86 9.05,3.96 9.9,2.43l0.8 -1.45c0.27,-0.6 -0.07,-1.42 -0.77,-1.85z"/>
    </g>
   </g>
   <g>
   </g>
   <g>
   </g>
   <g>
   </g>
   <g>
   </g>
   <g>
   </g>
   <g>
   </g>
   <g>
   </g>
   <g>
   </g>
   <g>
   </g>
   <g>
   </g>
   <g>
   </g>
   <g>
   </g>
   <g>
   </g>
   <g>
   </g>
   <g>
   </g>
  </g>
  <path class="fil1" d="M17.17 112.12l-0.2 -1.94 -2.63 -1.82 0.98 -0.34 1.35 0.97c0.25,0.18 0.49,0.36 0.71,0.55 0.16,-0.3 0.36,-0.65 0.59,-1.04l1.06 -1.76 0.95 -0.33 -2.19 3.49 0.19 1.94 -0.81 0.28z"/>
  <path id="_1_2" class="fil1" d="M20.69 108.59c-0.08,-0.76 0.14,-1.45 0.64,-2.07 0.51,-0.61 1.19,-1.07 2.06,-1.38 0.57,-0.19 1.09,-0.27 1.56,-0.23 0.48,0.05 0.85,0.21 1.13,0.49 0.27,0.27 0.44,0.64 0.48,1.1 0.05,0.46 -0.04,0.92 -0.25,1.37 -0.22,0.46 -0.55,0.86 -0.99,1.21 -0.44,0.34 -0.93,0.61 -1.46,0.8 -0.58,0.2 -1.11,0.27 -1.59,0.22 -0.47,-0.05 -0.85,-0.21 -1.12,-0.49 -0.27,-0.28 -0.42,-0.62 -0.46,-1.02zm0.84 -0.28c0.05,0.55 0.3,0.92 0.73,1.09 0.43,0.18 0.94,0.17 1.54,-0.04 0.61,-0.21 1.1,-0.55 1.46,-1 0.37,-0.46 0.52,-0.98 0.46,-1.57 -0.04,-0.37 -0.15,-0.67 -0.35,-0.89 -0.2,-0.22 -0.47,-0.34 -0.81,-0.38 -0.34,-0.04 -0.71,0.01 -1.12,0.15 -0.57,0.2 -1.05,0.52 -1.44,0.95 -0.38,0.44 -0.54,1 -0.47,1.69z"/>
  <path class="fil2 str0" d="M11.06 113.39l-4.3 1.64m4.13 -5.42l-4.3 1.63m4.47 0.33l-4.3 1.63"/>
  <g id="_1563090795648">
   <path class="fil1" d="M196.04 84.78l-1.11 -2.01c0.44,-0.28 0.73,-0.73 0.84,-1.29 0.24,-1.3 -0.61,-2.79 -1.9,-3.33 -1.29,-0.54 -2.54,0.08 -2.78,1.38 -0.25,1.3 0.6,2.79 1.89,3.33 0.49,0.2 0.98,0.25 1.42,0.13l1.12 2.04c0.05,0.08 0.12,0.15 0.2,0.18 0.08,0.04 0.16,0.04 0.23,0 0.14,-0.06 0.18,-0.26 0.09,-0.43zm-2.29 -6.02c0.96,0.4 1.59,1.51 1.4,2.47 -0.18,0.96 -1.1,1.41 -2.05,1.01 -0.95,-0.39 -1.58,-1.5 -1.4,-2.46 0.18,-0.96 1.1,-1.41 2.05,-1.02z"/>
   <g>
   </g>
   <g>
   </g>
   <g>
   </g>
   <g>
   </g>
   <g>
   </g>
   <g>
   </g>
   <g>
   </g>
   <g>
   </g>
   <g>
   </g>
   <g>
   </g>
   <g>
   </g>
   <g>
   </g>
   <g>
   </g>
   <g>
   </g>
   <g>
   </g>
  </g>
  <g id="_1563090801312">
   <path class="fil1" d="M66.72 96.1l-1.07 -1.45c0.42,-0.47 0.71,-1.04 0.81,-1.62 0.23,-1.37 -0.59,-2.42 -1.83,-2.36 -1.25,0.06 -2.46,1.22 -2.69,2.59 -0.24,1.36 0.58,2.42 1.83,2.36 0.47,-0.02 0.94,-0.2 1.37,-0.51l1.08 1.46c0.05,0.06 0.12,0.09 0.2,0.09 0.07,-0.01 0.15,-0.04 0.22,-0.1 0.13,-0.13 0.17,-0.34 0.08,-0.46zm-2.2 -4.79c0.92,-0.04 1.52,0.74 1.35,1.75 -0.18,1.01 -1.07,1.87 -1.99,1.91 -0.92,0.05 -1.53,-0.73 -1.35,-1.74 0.17,-1.01 1.06,-1.87 1.99,-1.92z"/>
   <g>
   </g>
   <g>
   </g>
   <g>
   </g>
   <g>
   </g>
   <g>
   </g>
   <g>
   </g>
   <g>
   </g>
   <g>
   </g>
   <g>
   </g>
   <g>
   </g>
   <g>
   </g>
   <g>
   </g>
   <g>
   </g>
   <g>
   </g>
   <g>
   </g>
  </g>
  <g id="_1563090806976">
   <ellipse class="fil3" cx="73.41" cy="89.47" rx="0.39" ry="0.5"/>
   <ellipse class="fil3" cx="73.42" cy="91.6" rx="0.39" ry="0.5"/>
   <ellipse class="fil3" cx="73.4" cy="93.73" rx="0.39" ry="0.5"/>
  </g>
  <g id="_1563090809616">
   <g>
    <g>
     <g>
      <rect class="fil1" transform="matrix(-0.00995886 -0.00389916 0.00170215 -0.00917373 203.578 73.3086)" width="309.55" height="190.49"/>
      <path class="fil1" d="M199.15 71.11l-0.08 0.43c-0.04,0.25 0.13,0.52 0.4,0.63l4.03 1.58c0.26,0.1 0.51,-0.01 0.55,-0.26l0.33 -1.74c0.04,-0.24 -0.14,-0.52 -0.4,-0.63l-4.03 -1.57c-0.26,-0.11 -0.51,0.01 -0.55,0.25l-0.08 0.43c-0.14,-0.05 -0.26,0.01 -0.28,0.13l-0.08 0.44c-0.03,0.12 0.06,0.26 0.19,0.31zm0.28 -0.13l0.2 -1.09c0.03,-0.12 0.15,-0.18 0.28,-0.13l4.03 1.58c0.13,0.05 0.22,0.19 0.2,0.31l-0.33 1.75c-0.02,0.12 -0.14,0.18 -0.27,0.13l-4.03 -1.58c-0.14,-0.05 -0.22,-0.19 -0.2,-0.31l0.12 -0.66 0 0z"/>
     </g>
    </g>
   </g>
   <g>
   </g>
   <g>
   </g>
   <g>
   </g>
   <g>
   </g>
   <g>
   </g>
   <g>
   </g>
   <g>
   </g>
   <g>
   </g>
   <g>
   </g>
   <g>
   </g>
   <g>
   </g>
   <g>
   </g>
   <g>
   </g>
   <g>
   </g>
   <g>
   </g>
  </g>
  <g id="_1563090814224">
   <g id="XMLID_358_">
    <path id="XMLID_362_" class="fil1" d="M184.17 66.66c-0.23,0.16 -0.27,0.52 -0.07,0.8 0.19,0.28 0.54,0.38 0.78,0.22 0.24,-0.16 0.28,-0.52 0.08,-0.8 -0.19,-0.28 -0.55,-0.38 -0.79,-0.22z"/>
    <path id="XMLID_361_" class="fil1" d="M184.7 65.42c-0.46,-0.13 -0.91,-0.06 -1.26,0.18 -0.14,0.09 -0.16,0.3 -0.05,0.46 0.11,0.17 0.32,0.23 0.46,0.13 0.22,-0.15 0.5,-0.18 0.79,-0.1 0.28,0.07 0.54,0.26 0.72,0.52 0.05,0.09 0.14,0.14 0.22,0.16 0.08,0.03 0.17,0.02 0.24,-0.03 0.14,-0.09 0.16,-0.3 0.04,-0.47 -0.29,-0.42 -0.7,-0.72 -1.16,-0.85z"/>
    <path id="XMLID_360_" class="fil1" d="M184.81 64.33c-0.75,-0.21 -1.48,-0.11 -2.06,0.28 -0.14,0.1 -0.16,0.31 -0.04,0.47 0.11,0.17 0.32,0.22 0.46,0.13 0.44,-0.3 1,-0.38 1.57,-0.22 0.57,0.16 1.09,0.54 1.45,1.06 0.06,0.08 0.14,0.14 0.22,0.16 0.09,0.03 0.17,0.02 0.24,-0.03 0.14,-0.09 0.16,-0.3 0.05,-0.47 -0.48,-0.68 -1.15,-1.17 -1.89,-1.38z"/>
    <path id="XMLID_359_" class="fil1" d="M187.53 65.15c-0.65,-0.95 -1.58,-1.63 -2.62,-1.91 -1.03,-0.29 -2.04,-0.15 -2.84,0.39 -0.14,0.09 -0.16,0.3 -0.05,0.47 0.06,0.08 0.14,0.13 0.22,0.16 0.09,0.02 0.17,0.01 0.24,-0.04 0.67,-0.44 1.51,-0.56 2.37,-0.32 0.86,0.24 1.63,0.8 2.18,1.59 0.11,0.17 0.32,0.22 0.46,0.13 0.14,-0.1 0.16,-0.31 0.04,-0.47z"/>
   </g>
   <g>
   </g>
   <g>
   </g>
   <g>
   </g>
   <g>
   </g>
   <g>
   </g>
   <g>
   </g>
   <g>
   </g>
   <g>
   </g>
   <g>
   </g>
   <g>
   </g>
   <g>
   </g>
   <g>
   </g>
   <g>
   </g>
   <g>
   </g>
   <g>
   </g>
  </g>
  <g id="_1563090837312">
   <g id="Layer_50" data-name="Layer 50">
    <path class="fil1" d="M194.56 70.52l0.56 0.24c0.04,0.01 0.08,-0.01 0.08,-0.05l0.07 -1.15c0,-0.05 -0.03,-0.09 -0.07,-0.11l-0.57 -0.24c-0.04,-0.02 -0.07,0 -0.08,0.04l-0.06 1.16c-0.01,0.04 0.02,0.09 0.07,0.11l0 0zm0.07 -1.23l0.41 0.17 -0.06 1 -0.41 -0.18 0.06 -0.99z"/>
    <path class="fil1" d="M196.05 71.07l0.12 -2c0,-0.04 -0.03,-0.09 -0.07,-0.11l-0.57 -0.24c-0.04,-0.02 -0.08,0 -0.08,0.05l-0.12 2c0,0.04 0.03,0.09 0.07,0.11l0.57 0.24c0.04,0.01 0.08,-0.01 0.08,-0.05l0 0zm-0.23 -0.1l-0.41 -0.17 0.11 -1.85 0.41 0.18 -0.11 1.84z"/>
    <path class="fil1" d="M196.9 71.43l0.17 -2.88c0,-0.04 -0.03,-0.09 -0.08,-0.11l-0.56 -0.24c-0.04,-0.02 -0.08,0 -0.08,0.05l-0.17 2.88c-0.01,0.04 0.03,0.09 0.07,0.11l0.56 0.24c0.05,0.01 0.08,-0.01 0.09,-0.05l0 0zm-0.24 -0.1l-0.41 -0.17 0.17 -2.73 0.41 0.18 -0.17 2.72z"/>
    <path class="fil1" d="M197.23 67.99l-0.21 3.49c0,0.05 0.03,0.1 0.08,0.12l0.56 0.24c0.04,0.01 0.08,-0.01 0.08,-0.05l0.21 -3.49c0,-0.05 -0.03,-0.1 -0.07,-0.11l-0.57 -0.24c-0.04,-0.02 -0.08,0 -0.08,0.04zm0.23 0.1l0.41 0.17 -0.2 3.34 -0.41 -0.17 0.2 -3.34z"/>
   </g>
  </g>
  <g id="_1563090773520">
   <g id="Layer_50_3" data-name="Layer 50">
    <path class="fil1" d="M190.08 68.65l0.57 0.24c0.04,0.02 0.08,0 0.08,-0.04l0.07 -1.16c0,-0.04 -0.03,-0.09 -0.08,-0.11l-0.56 -0.24c-0.04,-0.02 -0.08,0 -0.08,0.05l-0.07 1.15c0,0.05 0.03,0.09 0.07,0.11l0 0zm0.08 -1.23l0.41 0.17 -0.06 1 -0.41 -0.17 0.06 -1z"/>
    <path class="fil1" d="M191.57 69.21l0.12 -2.01c0.01,-0.04 -0.03,-0.09 -0.07,-0.11l-0.56 -0.24c-0.05,-0.01 -0.08,0.01 -0.08,0.05l-0.12 2c-0.01,0.04 0.03,0.09 0.07,0.11l0.56 0.24c0.05,0.02 0.08,0 0.08,-0.04l0 0zm-0.23 -0.1l-0.41 -0.18 0.11 -1.84 0.41 0.17 -0.11 1.85z"/>
    <path class="fil1" d="M192.42 69.57l0.17 -2.88c0,-0.05 -0.03,-0.1 -0.07,-0.12l-0.56 -0.23c-0.05,-0.02 -0.08,0 -0.09,0.04l-0.17 2.88c0,0.04 0.03,0.09 0.08,0.11l0.56 0.24c0.04,0.02 0.08,0 0.08,-0.04l0 0zm-0.23 -0.1l-0.41 -0.18 0.16 -2.72 0.41 0.17 -0.16 2.73z"/>
    <path class="fil1" d="M192.76 66.13l-0.21 3.49c0,0.04 0.03,0.09 0.07,0.11l0.57 0.24c0.04,0.02 0.07,0 0.08,-0.04l0.2 -3.5c0.01,-0.04 -0.03,-0.09 -0.07,-0.11l-0.56 -0.24c-0.04,-0.02 -0.08,0 -0.08,0.05zm0.23 0.09l0.41 0.18 -0.2 3.34 -0.41 -0.18 0.2 -3.34z"/>
   </g>
  </g>
  <ellipse class="fil3" cx="116.51" cy="37.49" rx="0.75" ry="0.84"/>
  <ellipse class="fil3" cx="118.3" cy="38.13" rx="0.63" ry="0.84"/>
  <ellipse class="fil3" cx="120.04" cy="38.92" rx="0.59" ry="0.84"/>
  <ellipse class="fil3" cx="121.76" cy="39.64" rx="0.59" ry="0.84"/>
  <ellipse class="fil3" cx="123.47" cy="40.37" rx="0.59" ry="0.84"/>
  <g id="_1563090776064">
   <g>
    <g>
     <g>
      <rect class="fil1" transform="matrix(-0.0110285 0.00441355 -0.00256543 -0.00785912 78.68 78.231)" width="309.55" height="190.49"/>
      <path class="fil1" d="M73.57 79.85l0.12 0.38c0.07,0.2 0.36,0.28 0.65,0.16l4.46 -1.78c0.29,-0.12 0.47,-0.38 0.41,-0.59l-0.49 -1.5c-0.07,-0.2 -0.36,-0.28 -0.65,-0.16l-4.46 1.79c-0.3,0.11 -0.48,0.37 -0.41,0.58l0.12 0.37c-0.14,0.06 -0.23,0.19 -0.2,0.3l0.12 0.37c0.04,0.1 0.18,0.14 0.33,0.08zm0.2 -0.29l-0.31 -0.93c-0.03,-0.11 0.06,-0.24 0.21,-0.3l4.46 -1.78c0.15,-0.06 0.29,-0.02 0.32,0.08l0.49 1.5c0.04,0.1 -0.05,0.23 -0.2,0.29l-4.46 1.78c-0.15,0.06 -0.29,0.03 -0.33,-0.08l-0.18 -0.56 0 0z"/>
     </g>
    </g>
   </g>
   <g>
   </g>
   <g>
   </g>
   <g>
   </g>
   <g>
   </g>
   <g>
   </g>
   <g>
   </g>
   <g>
   </g>
   <g>
   </g>
   <g>
   </g>
   <g>
   </g>
   <g>
   </g>
   <g>
   </g>
   <g>
   </g>
   <g>
   </g>
   <g>
   </g>
  </g>
  <g id="_1563090831216">
   <g id="XMLID_358__4">
    <path id="XMLID_362__5" class="fil1" d="M56.29 86.2c-0.17,0.27 -0.07,0.58 0.22,0.68 0.3,0.11 0.69,-0.03 0.86,-0.3 0.18,-0.26 0.08,-0.57 -0.22,-0.67 -0.3,-0.11 -0.68,0.03 -0.86,0.29z"/>
    <path id="XMLID_361__6" class="fil1" d="M56.35 84.92c-0.5,0.17 -0.92,0.49 -1.18,0.89 -0.11,0.16 -0.05,0.33 0.13,0.39 0.17,0.07 0.39,-0.01 0.5,-0.17 0.16,-0.25 0.42,-0.45 0.73,-0.55 0.31,-0.11 0.63,-0.12 0.91,-0.02 0.09,0.03 0.19,0.03 0.28,0 0.09,-0.04 0.17,-0.09 0.22,-0.17 0.11,-0.16 0.05,-0.34 -0.13,-0.4 -0.44,-0.16 -0.96,-0.15 -1.46,0.03z"/>
    <path id="XMLID_360__7" class="fil1" d="M56.04 83.99c-0.81,0.28 -1.49,0.8 -1.92,1.45 -0.1,0.16 -0.04,0.34 0.13,0.4 0.18,0.06 0.4,-0.02 0.51,-0.18 0.32,-0.5 0.85,-0.89 1.47,-1.11 0.62,-0.21 1.27,-0.22 1.82,-0.03 0.09,0.03 0.19,0.03 0.28,0 0.09,-0.04 0.17,-0.09 0.23,-0.17 0.1,-0.16 0.04,-0.34 -0.13,-0.4 -0.73,-0.25 -1.57,-0.24 -2.39,0.04z"/>
    <path id="XMLID_359__8" class="fil1" d="M59.04 83.01c-1,-0.35 -2.17,-0.33 -3.3,0.06 -1.12,0.39 -2.07,1.1 -2.66,2.01 -0.1,0.15 -0.04,0.33 0.13,0.39 0.09,0.03 0.19,0.03 0.28,0 0.09,-0.04 0.17,-0.09 0.22,-0.17 0.49,-0.75 1.28,-1.35 2.21,-1.67 0.94,-0.33 1.92,-0.34 2.75,-0.05 0.17,0.06 0.4,-0.02 0.5,-0.17 0.1,-0.16 0.05,-0.34 -0.13,-0.4z"/>
   </g>
   <g>
   </g>
   <g>
   </g>
   <g>
   </g>
   <g>
   </g>
   <g>
   </g>
   <g>
   </g>
   <g>
   </g>
   <g>
   </g>
   <g>
   </g>
   <g>
   </g>
   <g>
   </g>
   <g>
   </g>
   <g>
   </g>
   <g>
   </g>
   <g>
   </g>
  </g>
  <g id="_1563094023664">
   <g id="Layer_50_9" data-name="Layer 50">
    <path class="fil1" d="M67.46 82.51l0.71 -0.26c0.06,-0.02 0.09,-0.06 0.08,-0.09l-0.36 -0.81c-0.01,-0.03 -0.07,-0.04 -0.12,-0.02l-0.71 0.27c-0.05,0.02 -0.09,0.06 -0.07,0.09l0.35 0.8c0.02,0.03 0.07,0.04 0.12,0.02l0 0zm-0.38 -0.86l0.52 -0.19 0.31 0.7 -0.52 0.19 -0.31 -0.7z"/>
    <path class="fil1" d="M69.31 81.76l-0.61 -1.39c-0.01,-0.03 -0.07,-0.04 -0.12,-0.02l-0.71 0.26c-0.06,0.02 -0.09,0.06 -0.08,0.09l0.62 1.4c0.01,0.03 0.07,0.04 0.12,0.02l0.71 -0.26c0.06,-0.02 0.09,-0.07 0.07,-0.1l0 0zm-0.29 0.11l-0.51 0.19 -0.57 -1.29 0.52 -0.19 0.56 1.29z"/>
    <path class="fil1" d="M70.38 81.37l-0.88 -2.01c-0.02,-0.03 -0.07,-0.04 -0.13,-0.02l-0.71 0.26c-0.05,0.02 -0.08,0.06 -0.07,0.09l0.89 2.01c0.01,0.03 0.06,0.04 0.12,0.02l0.71 -0.26c0.05,-0.02 0.08,-0.06 0.07,-0.09l0 0zm-0.29 0.11l-0.52 0.19 -0.84 -1.91 0.52 -0.19 0.84 1.91z"/>
    <path class="fil1" d="M69.47 78.87l1.07 2.44c0.02,0.03 0.07,0.04 0.12,0.02l0.72 -0.26c0.05,-0.02 0.08,-0.07 0.07,-0.1l-1.08 -2.44c-0.01,-0.03 -0.06,-0.04 -0.12,-0.02l-0.71 0.27c-0.05,0.02 -0.09,0.06 -0.07,0.09zm0.29 -0.11l0.52 -0.19 1.02 2.33 -0.51 0.19 -1.03 -2.33z"/>
   </g>
  </g>
  <ellipse class="fil3" transform="matrix(0.77896 -0.566903 0.51758 0.775061 4.47307 103.592)" rx="0.83" ry="0.84"/>
  <ellipse class="fil3" transform="matrix(0.655613 -0.477135 0.51758 0.775061 6.35449 102.968)" rx="0.83" ry="0.84"/>
  <ellipse class="fil3" transform="matrix(0.616196 -0.448448 0.51758 0.775061 8.27382 102.473)" rx="0.83" ry="0.84"/>
  <ellipse class="fil3" transform="matrix(0.616196 -0.448448 0.51758 0.775061 10.1409 101.953)" rx="0.83" ry="0.84"/>
  <ellipse class="fil3" transform="matrix(0.616196 -0.448448 0.51758 0.775061 12.008 101.432)" rx="0.83" ry="0.84"/>
  <g id="_1563094029328">
   <g id="Layer_50_10" data-name="Layer 50">
    <path class="fil1" d="M62 84.56l0.71 -0.27c0.05,-0.02 0.09,-0.06 0.07,-0.09l-0.35 -0.8c-0.02,-0.03 -0.07,-0.04 -0.12,-0.02l-0.72 0.26c-0.05,0.02 -0.08,0.06 -0.07,0.09l0.36 0.81c0.01,0.03 0.06,0.04 0.12,0.02l0 0zm-0.38 -0.87l0.52 -0.19 0.3 0.7 -0.51 0.19 -0.31 -0.7z"/>
    <path class="fil1" d="M63.85 83.81l-0.62 -1.4c-0.01,-0.03 -0.06,-0.04 -0.12,-0.02l-0.71 0.26c-0.05,0.02 -0.09,0.06 -0.07,0.09l0.61 1.4c0.02,0.03 0.07,0.04 0.12,0.02l0.72 -0.26c0.05,-0.02 0.08,-0.06 0.07,-0.09l0 0zm-0.29 0.1l-0.52 0.2 -0.57 -1.29 0.52 -0.2 0.57 1.29z"/>
    <path class="fil1" d="M64.92 83.41l-0.89 -2.01c-0.01,-0.03 -0.07,-0.04 -0.12,-0.02l-0.71 0.26c-0.06,0.02 -0.09,0.06 -0.08,0.09l0.89 2.02c0.01,0.03 0.07,0.04 0.12,0.02l0.71 -0.27c0.06,-0.02 0.09,-0.06 0.08,-0.09l0 0zm-0.3 0.11l-0.51 0.19 -0.84 -1.9 0.52 -0.19 0.83 1.9z"/>
    <path class="fil1" d="M64 80.91l1.08 2.44c0.01,0.03 0.07,0.04 0.12,0.02l0.71 -0.26c0.05,-0.02 0.09,-0.06 0.07,-0.09l-1.07 -2.45c-0.02,-0.03 -0.07,-0.03 -0.12,-0.01l-0.71 0.26c-0.06,0.02 -0.09,0.06 -0.08,0.09zm0.29 -0.11l0.52 -0.19 1.03 2.33 -0.52 0.2 -1.03 -2.34z"/>
   </g>
  </g>
 </g>
</svg>
