<?xml version="1.0" encoding="UTF-8"?>
<!DOCTYPE svg PUBLIC "-//W3C//DTD SVG 1.1//EN" "http://www.w3.org/Graphics/SVG/1.1/DTD/svg11.dtd">
<!-- Creator: CorelDRAW 2021 (64-Bit) -->
<svg xmlns="http://www.w3.org/2000/svg" xml:space="preserve" width="300px" height="223px" version="1.1" style="shape-rendering:geometricPrecision; text-rendering:geometricPrecision; image-rendering:optimizeQuality; fill-rule:evenodd; clip-rule:evenodd"
viewBox="0 0 102.69 76.36"
 xmlns:xlink="http://www.w3.org/1999/xlink"
 xmlns:xodm="http://www.corel.com/coreldraw/odm/2003">
 <defs>
   <clipPath id="id0">
    <path d="M0 0l102.69 4.51 -5.89 54.82 -11.09 0.28c-0.62,2.18 -2.31,2.69 -3.51,2.83l-21.21 -0.04c-0.87,-0.07 -1.06,0.65 -1.04,1.27l1.21 9.52 2.82 -0.03 3.62 3.2 -26.41 -0.28 1.36 -3.41 3.99 0.49 0.74 -9.43c0.11,-0.79 -0.43,-1.23 -1.95,-1.05l-21.01 0.02c-1.26,-0.17 -2.61,-1.77 -2.54,-3.11l-10.92 6.4 -10.86 -65.99z"/>
   </clipPath>
 </defs>
 <g id="Layer_x0020_1">
  <metadata id="CorelCorpID_0Corel-Layer"/>
  <g style="clip-path:url(#id0)">
   <image x="-8.82" y="-13.71" width="121.1" height="109.64" xlink:href="Developer_Images\Developer_ImgID1.png"/>
  </g>
 </g>
</svg>
